<svg width="16" height="17" viewBox="0 0 16 17" fill="none" xmlns="http://www.w3.org/2000/svg">
<mask id="mask0_868_29429" style="mask-type:alpha" maskUnits="userSpaceOnUse" x="0" y="0" width="16" height="17">
<rect y="0.5" width="16" height="16" fill="#D9D9D9"/>
</mask>
<g mask="url(#mask0_868_29429)">
<path d="M7.99984 10.5003C8.55539 10.5003 9.02762 10.3059 9.4165 9.91699C9.80539 9.5281 9.99984 9.05588 9.99984 8.50033C9.99984 7.94477 9.80539 7.47255 9.4165 7.08366C9.02762 6.69477 8.55539 6.50033 7.99984 6.50033C7.44428 6.50033 6.97206 6.69477 6.58317 7.08366C6.19428 7.47255 5.99984 7.94477 5.99984 8.50033C5.99984 9.05588 6.19428 9.5281 6.58317 9.91699C6.97206 10.3059 7.44428 10.5003 7.99984 10.5003ZM7.99984 11.8337C7.07762 11.8337 6.2915 11.5087 5.6415 10.8587C4.9915 10.2087 4.6665 9.42255 4.6665 8.50033C4.6665 7.5781 4.9915 6.79199 5.6415 6.14199C6.2915 5.49199 7.07762 5.16699 7.99984 5.16699C8.92206 5.16699 9.70817 5.49199 10.3582 6.14199C11.0082 6.79199 11.3332 7.5781 11.3332 8.50033C11.3332 9.42255 11.0082 10.2087 10.3582 10.8587C9.70817 11.5087 8.92206 11.8337 7.99984 11.8337ZM3.33317 9.16699H0.666504V7.83366H3.33317V9.16699ZM15.3332 9.16699H12.6665V7.83366H15.3332V9.16699ZM7.33317 3.83366V1.16699H8.6665V3.83366H7.33317ZM7.33317 15.8337V13.167H8.6665V15.8337H7.33317ZM4.2665 5.66699L2.58317 4.05033L3.53317 3.06699L5.13317 4.73366L4.2665 5.66699ZM12.4665 13.9337L10.8498 12.2503L11.7332 11.3337L13.4165 12.9503L12.4665 13.9337ZM10.8332 4.76699L12.4498 3.08366L13.4332 4.03366L11.7665 5.63366L10.8332 4.76699ZM2.5665 12.967L4.24984 11.3503L5.1665 12.2337L3.54984 13.917L2.5665 12.967Z" fill="#F46628"/>
</g>
</svg>
