<svg width="16" height="17" viewBox="0 0 16 17" fill="none" xmlns="http://www.w3.org/2000/svg">
<mask id="mask0_1235_58073" style="mask-type:alpha" maskUnits="userSpaceOnUse" x="0" y="0" width="16" height="17">
<rect y="0.5" width="16" height="16" fill="#D9D9D9"/>
</mask>
<g mask="url(#mask0_1235_58073)">
<path d="M7.3487 15.1339C6.50425 15.045 5.71814 14.8144 4.99036 14.4422C4.26259 14.07 3.62648 13.5866 3.08203 12.9922C2.53759 12.3977 2.10981 11.7172 1.7987 10.9505C1.48759 10.1839 1.33203 9.36719 1.33203 8.50052C1.33203 6.75608 1.91259 5.25608 3.0737 4.00052C4.23481 2.74497 5.65981 2.03385 7.3487 1.86719V3.21719C6.02648 3.38385 4.91536 3.96441 4.01536 4.95885C3.11536 5.9533 2.66536 7.13385 2.66536 8.50052C2.66536 9.86719 3.11536 11.0477 4.01536 12.0422C4.91536 13.0366 6.02648 13.6172 7.3487 13.7839V15.1339ZM7.3487 11.8339V7.71719L5.61536 9.45052L4.68203 8.50052L8.01536 5.16719L11.3487 8.50052L10.3987 9.43385L8.68203 7.71719V11.8339H7.3487ZM8.68203 15.1339V13.7839C9.17092 13.7283 9.63481 13.6061 10.0737 13.4172C10.5126 13.2283 10.9154 12.9894 11.282 12.7005L12.232 13.6672C11.732 14.0672 11.182 14.395 10.582 14.6505C9.98203 14.9061 9.3487 15.0672 8.68203 15.1339ZM11.2654 4.30052C10.8987 4.01163 10.4987 3.77274 10.0654 3.58385C9.63203 3.39497 9.17092 3.27274 8.68203 3.21719V1.86719C9.3487 1.93385 9.98203 2.09497 10.582 2.35052C11.182 2.60608 11.732 2.93385 12.232 3.33385L11.2654 4.30052ZM13.1654 12.7172L12.2154 11.7672C12.5043 11.4005 12.7431 10.9977 12.932 10.5589C13.1209 10.12 13.2431 9.65608 13.2987 9.16719H14.6487C14.582 9.83385 14.4181 10.4672 14.157 11.0672C13.8959 11.6672 13.5654 12.2172 13.1654 12.7172ZM13.2987 7.83385C13.2431 7.34497 13.1209 6.88108 12.932 6.44219C12.7431 6.0033 12.5043 5.60052 12.2154 5.23385L13.1654 4.28385C13.5654 4.78385 13.8959 5.33385 14.157 5.93385C14.4181 6.53385 14.582 7.16719 14.6487 7.83385H13.2987Z" fill="#F46628"/>
</g>
</svg>
