<svg width="16" height="15" viewBox="0 0 16 15" fill="none" xmlns="http://www.w3.org/2000/svg">
<mask id="mask0_1243_34599" style="mask-type:alpha" maskUnits="userSpaceOnUse" x="0" y="0" width="16" height="15">
<rect x="0.5" width="15" height="15" fill="#D9D9D9"/>
</mask>
<g mask="url(#mask0_1243_34599)">
<path d="M8 13.75C6.61458 13.75 5.4349 13.2708 4.46094 12.3125C3.48698 11.3542 3 10.1875 3 8.8125C3 8.15625 3.1276 7.52865 3.38281 6.92969C3.63802 6.33073 4 5.80208 4.46875 5.34375L8 1.875L11.5312 5.34375C12 5.80208 12.362 6.33073 12.6172 6.92969C12.8724 7.52865 13 8.15625 13 8.8125C13 10.1875 12.513 11.3542 11.5391 12.3125C10.5651 13.2708 9.38542 13.75 8 13.75ZM4.25 8.8125H11.75C11.75 8.32292 11.6562 7.85677 11.4688 7.41406C11.2812 6.97135 11.0104 6.58333 10.6562 6.25L8 3.625L5.34375 6.25C4.98958 6.58333 4.71875 6.97135 4.53125 7.41406C4.34375 7.85677 4.25 8.32292 4.25 8.8125Z" fill="white"/>
</g>
</svg>
