<svg width="20" height="19" viewBox="0 0 20 19" fill="none" xmlns="http://www.w3.org/2000/svg">
<mask id="mask0_1243_50909" style="mask-type:alpha" maskUnits="userSpaceOnUse" x="0" y="0" width="20" height="19">
<rect x="0.5" width="19" height="19" fill="#D9D9D9"/>
</mask>
<g mask="url(#mask0_1243_50909)">
<path d="M8.41667 13.7235C6.87292 13.7235 5.56337 13.2456 4.48802 12.2897C3.41267 11.3339 2.875 10.1698 2.875 8.7976V4.57538C2.875 4.18834 3.03003 3.85701 3.3401 3.58139C3.65017 3.30578 4.02292 3.16797 4.45833 3.16797H14.3542C15.1194 3.16797 15.7726 3.4084 16.3135 3.88927C16.8545 4.37013 17.125 4.95068 17.125 5.63093C17.125 6.31118 16.8545 6.89173 16.3135 7.3726C15.7726 7.85346 15.1194 8.09389 14.3542 8.09389H13.9583V8.7976C13.9583 10.1698 13.4207 11.3339 12.3453 12.2897C11.27 13.2456 9.96042 13.7235 8.41667 13.7235ZM4.45833 6.68649H12.375V4.57538H4.45833V6.68649ZM8.41667 12.3161C9.51181 12.3161 10.4453 11.9731 11.2172 11.287C11.9891 10.6008 12.375 9.77106 12.375 8.7976V8.09389H4.45833V8.7976C4.45833 9.77106 4.84427 10.6008 5.61615 11.287C6.38802 11.9731 7.32153 12.3161 8.41667 12.3161ZM13.9583 6.68649H14.3542C14.684 6.68649 14.9644 6.58386 15.1953 6.37862C15.4262 6.17337 15.5417 5.92414 15.5417 5.63093C15.5417 5.33772 15.4262 5.08849 15.1953 4.88325C14.9644 4.678 14.684 4.57538 14.3542 4.57538H13.9583V6.68649ZM2.875 15.8346V14.4272H15.5417V15.8346H2.875Z" fill="white"/>
</g>
</svg>
