<svg width="30" height="30" viewBox="0 0 30 30" fill="none" xmlns="http://www.w3.org/2000/svg">
<rect width="30" height="30" fill="white"/>
<path d="M10.832 22.5C10.3737 22.5 9.98134 22.3368 9.65495 22.0104C9.32856 21.684 9.16536 21.2917 9.16536 20.8333V10H8.33203V8.33333H12.4987V7.5H17.4987V8.33333H21.6654V10H20.832V20.8333C20.832 21.2917 20.6688 21.684 20.3424 22.0104C20.0161 22.3368 19.6237 22.5 19.1654 22.5H10.832ZM19.1654 10H10.832V20.8333H19.1654V10ZM12.4987 19.1667H14.1654V11.6667H12.4987V19.1667ZM15.832 19.1667H17.4987V11.6667H15.832V19.1667Z" fill="#979797"/>
</svg>
