<svg width="38" height="38" viewBox="0 0 38 38" fill="none" xmlns="http://www.w3.org/2000/svg">
<rect x="1" y="1" width="36" height="36" rx="18" stroke="#F69164" stroke-width="2"/>
<mask id="mask0_1981_20181" style="mask-type:alpha" maskUnits="userSpaceOnUse" x="8" y="8" width="22" height="22">
<rect x="8" y="8" width="22" height="22" fill="#D9D9D9"/>
</mask>
<g mask="url(#mask0_1981_20181)">
<path d="M12.5833 28.1673C12.0792 28.1673 11.6476 27.9878 11.2885 27.6288C10.9295 27.2697 10.75 26.8382 10.75 26.334V13.5007C10.75 12.9965 10.9295 12.5649 11.2885 12.2059C11.6476 11.8468 12.0792 11.6673 12.5833 11.6673H13.5V9.83398H15.3333V11.6673H22.6667V9.83398H24.5V11.6673H25.4167C25.9208 11.6673 26.3524 11.8468 26.7115 12.2059C27.0705 12.5649 27.25 12.9965 27.25 13.5007V26.334C27.25 26.8382 27.0705 27.2697 26.7115 27.6288C26.3524 27.9878 25.9208 28.1673 25.4167 28.1673H12.5833ZM12.5833 26.334H25.4167V17.1673H12.5833V26.334ZM12.5833 15.334H25.4167V13.5007H12.5833V15.334ZM19 20.834C18.7403 20.834 18.5226 20.7461 18.3469 20.5704C18.1712 20.3947 18.0833 20.177 18.0833 19.9173C18.0833 19.6576 18.1712 19.4399 18.3469 19.2642C18.5226 19.0885 18.7403 19.0007 19 19.0007C19.2597 19.0007 19.4774 19.0885 19.6531 19.2642C19.8288 19.4399 19.9167 19.6576 19.9167 19.9173C19.9167 20.177 19.8288 20.3947 19.6531 20.5704C19.4774 20.7461 19.2597 20.834 19 20.834ZM15.3333 20.834C15.0736 20.834 14.8559 20.7461 14.6802 20.5704C14.5045 20.3947 14.4167 20.177 14.4167 19.9173C14.4167 19.6576 14.5045 19.4399 14.6802 19.2642C14.8559 19.0885 15.0736 19.0007 15.3333 19.0007C15.5931 19.0007 15.8108 19.0885 15.9865 19.2642C16.1622 19.4399 16.25 19.6576 16.25 19.9173C16.25 20.177 16.1622 20.3947 15.9865 20.5704C15.8108 20.7461 15.5931 20.834 15.3333 20.834ZM22.6667 20.834C22.4069 20.834 22.1892 20.7461 22.0135 20.5704C21.8378 20.3947 21.75 20.177 21.75 19.9173C21.75 19.6576 21.8378 19.4399 22.0135 19.2642C22.1892 19.0885 22.4069 19.0007 22.6667 19.0007C22.9264 19.0007 23.1441 19.0885 23.3198 19.2642C23.4955 19.4399 23.5833 19.6576 23.5833 19.9173C23.5833 20.177 23.4955 20.3947 23.3198 20.5704C23.1441 20.7461 22.9264 20.834 22.6667 20.834ZM19 24.5007C18.7403 24.5007 18.5226 24.4128 18.3469 24.2371C18.1712 24.0614 18.0833 23.8437 18.0833 23.584C18.0833 23.3243 18.1712 23.1066 18.3469 22.9309C18.5226 22.7552 18.7403 22.6673 19 22.6673C19.2597 22.6673 19.4774 22.7552 19.6531 22.9309C19.8288 23.1066 19.9167 23.3243 19.9167 23.584C19.9167 23.8437 19.8288 24.0614 19.6531 24.2371C19.4774 24.4128 19.2597 24.5007 19 24.5007ZM15.3333 24.5007C15.0736 24.5007 14.8559 24.4128 14.6802 24.2371C14.5045 24.0614 14.4167 23.8437 14.4167 23.584C14.4167 23.3243 14.5045 23.1066 14.6802 22.9309C14.8559 22.7552 15.0736 22.6673 15.3333 22.6673C15.5931 22.6673 15.8108 22.7552 15.9865 22.9309C16.1622 23.1066 16.25 23.3243 16.25 23.584C16.25 23.8437 16.1622 24.0614 15.9865 24.2371C15.8108 24.4128 15.5931 24.5007 15.3333 24.5007ZM22.6667 24.5007C22.4069 24.5007 22.1892 24.4128 22.0135 24.2371C21.8378 24.0614 21.75 23.8437 21.75 23.584C21.75 23.3243 21.8378 23.1066 22.0135 22.9309C22.1892 22.7552 22.4069 22.6673 22.6667 22.6673C22.9264 22.6673 23.1441 22.7552 23.3198 22.9309C23.4955 23.1066 23.5833 23.3243 23.5833 23.584C23.5833 23.8437 23.4955 24.0614 23.3198 24.2371C23.1441 24.4128 22.9264 24.5007 22.6667 24.5007Z" fill="#F69164"/>
</g>
</svg>
