<svg width="16" height="17" viewBox="0 0 16 17" fill="none" xmlns="http://www.w3.org/2000/svg">
<mask id="mask0_1235_58086" style="mask-type:alpha" maskUnits="userSpaceOnUse" x="0" y="0" width="16" height="17">
<rect y="0.5" width="16" height="16" fill="#D9D9D9"/>
</mask>
<g mask="url(#mask0_1235_58086)">
<path d="M8.0013 13.8327C6.51241 13.8327 5.2513 13.316 4.21797 12.2827C3.18464 11.2493 2.66797 9.98824 2.66797 8.49935C2.66797 7.01046 3.18464 5.74935 4.21797 4.71602C5.2513 3.68268 6.51241 3.16602 8.0013 3.16602C8.76797 3.16602 9.5013 3.32435 10.2013 3.64102C10.9013 3.95768 11.5013 4.41046 12.0013 4.99935V3.16602H13.3346V7.83268H8.66797V6.49935H11.468C11.1124 5.87713 10.6263 5.38824 10.0096 5.03268C9.39297 4.67713 8.72352 4.49935 8.0013 4.49935C6.89019 4.49935 5.94575 4.88824 5.16797 5.66602C4.39019 6.44379 4.0013 7.38824 4.0013 8.49935C4.0013 9.61046 4.39019 10.5549 5.16797 11.3327C5.94575 12.1105 6.89019 12.4993 8.0013 12.4993C8.85686 12.4993 9.62908 12.2549 10.318 11.766C11.0069 11.2771 11.4902 10.6327 11.768 9.83268H13.168C12.8569 11.0105 12.2235 11.9716 11.268 12.716C10.3124 13.4605 9.22352 13.8327 8.0013 13.8327Z" fill="#F46628"/>
</g>
</svg>
