<svg width="20" height="19" viewBox="0 0 20 19" fill="none" xmlns="http://www.w3.org/2000/svg">
<mask id="mask0_1243_50917" style="mask-type:alpha" maskUnits="userSpaceOnUse" x="0" y="0" width="20" height="19">
<rect x="0.5" width="19" height="19" fill="#D9D9D9"/>
</mask>
<g mask="url(#mask0_1243_50917)">
<path d="M9.9987 16.5511C8.45495 16.5511 7.1454 16.0731 6.07005 15.1173C4.9947 14.1614 4.45703 12.9974 4.45703 11.6252C4.45703 10.5227 4.82318 9.53457 5.55547 8.6608C6.28776 7.78704 7.24766 7.19768 8.43516 6.89275C8.17127 6.8341 7.91398 6.74907 7.66328 6.63765C7.41259 6.52623 7.18828 6.38256 6.99036 6.20663C6.55495 5.8196 6.27457 5.35926 6.14922 4.82562C6.02387 4.29197 5.99418 3.74954 6.06016 3.1983C6.68029 3.13966 7.29054 3.16605 7.89089 3.27747C8.49123 3.38889 9.00911 3.63812 9.44453 4.02515C9.748 4.29491 9.96901 4.59984 10.1076 4.93997C10.2461 5.28009 10.3352 5.63781 10.3747 6.01312C10.5463 5.64954 10.7541 5.30648 10.9982 4.98395C11.2423 4.66142 11.5161 4.36528 11.8195 4.09552C11.9647 3.96651 12.1494 3.902 12.3737 3.902C12.598 3.902 12.7827 3.96651 12.9279 4.09552C13.073 4.22454 13.1456 4.38873 13.1456 4.58812C13.1456 4.7875 13.073 4.9517 12.9279 5.08071C12.6376 5.33873 12.3803 5.62315 12.156 5.93395C11.9317 6.24475 11.7668 6.57608 11.6612 6.92793C12.8223 7.25633 13.7591 7.85154 14.4716 8.71358C15.1841 9.57562 15.5404 10.5461 15.5404 11.6252C15.5404 12.9974 15.0027 14.1614 13.9273 15.1173C12.852 16.0731 11.5424 16.5511 9.9987 16.5511ZM9.9987 15.1437C11.0938 15.1437 12.0273 14.8006 12.7992 14.1145C13.5711 13.4284 13.957 12.5986 13.957 11.6252C13.957 10.6517 13.5711 9.82191 12.7992 9.1358C12.0273 8.44969 11.0938 8.10663 9.9987 8.10663C8.90356 8.10663 7.97005 8.44969 7.19818 9.1358C6.4263 9.82191 6.04036 10.6517 6.04036 11.6252C6.04036 12.5986 6.4263 13.4284 7.19818 14.1145C7.97005 14.8006 8.90356 15.1437 9.9987 15.1437Z" fill="white"/>
</g>
</svg>
