<svg width="16" height="17" viewBox="0 0 16 17" fill="none" xmlns="http://www.w3.org/2000/svg">
<mask id="mask0_868_29449" style="mask-type:alpha" maskUnits="userSpaceOnUse" x="0" y="0" width="16" height="17">
<rect y="0.5" width="16" height="16" fill="#D9D9D9"/>
</mask>
<g mask="url(#mask0_868_29449)">
<path d="M8.18317 13.1663C8.3165 13.1552 8.43039 13.1025 8.52484 13.008C8.61928 12.9136 8.6665 12.7997 8.6665 12.6663C8.6665 12.5108 8.6165 12.3858 8.5165 12.2913C8.4165 12.1969 8.28873 12.1552 8.13317 12.1663C7.67762 12.1997 7.19428 12.0747 6.68317 11.7913C6.17206 11.508 5.84984 10.9941 5.7165 10.2497C5.69428 10.1275 5.63595 10.0275 5.5415 9.94967C5.44706 9.8719 5.33873 9.83301 5.2165 9.83301C5.06095 9.83301 4.93317 9.89134 4.83317 10.008C4.73317 10.1247 4.69984 10.2608 4.73317 10.4163C4.92206 11.4275 5.3665 12.1497 6.0665 12.583C6.7665 13.0163 7.47206 13.2108 8.18317 13.1663ZM7.99984 15.1663C6.47761 15.1663 5.20817 14.6441 4.1915 13.5997C3.17484 12.5552 2.6665 11.2552 2.6665 9.69967C2.6665 8.58856 3.10817 7.38023 3.9915 6.07467C4.87484 4.76912 6.21095 3.35523 7.99984 1.83301C9.78873 3.35523 11.1248 4.76912 12.0082 6.07467C12.8915 7.38023 13.3332 8.58856 13.3332 9.69967C13.3332 11.2552 12.8248 12.5552 11.8082 13.5997C10.7915 14.6441 9.52206 15.1663 7.99984 15.1663ZM7.99984 13.833C9.15539 13.833 10.1109 13.4413 10.8665 12.658C11.6221 11.8747 11.9998 10.8886 11.9998 9.69967C11.9998 8.88856 11.6637 7.9719 10.9915 6.94967C10.3193 5.92745 9.32206 4.81079 7.99984 3.59967C6.67762 4.81079 5.68039 5.92745 5.00817 6.94967C4.33595 7.9719 3.99984 8.88856 3.99984 9.69967C3.99984 10.8886 4.37762 11.8747 5.13317 12.658C5.88873 13.4413 6.84428 13.833 7.99984 13.833Z" fill="#F46628"/>
</g>
</svg>
