<svg width="16" height="17" viewBox="0 0 16 17" fill="none" xmlns="http://www.w3.org/2000/svg">
<mask id="mask0_868_29439" style="mask-type:alpha" maskUnits="userSpaceOnUse" x="0" y="0" width="16" height="17">
<rect y="0.5" width="16" height="16" fill="#D9D9D9"/>
</mask>
<g mask="url(#mask0_868_29439)">
<path d="M8 14.5C6.33333 14.5 4.91667 13.9167 3.75 12.75C2.58333 11.5833 2 10.1667 2 8.5C2 6.83333 2.58333 5.41667 3.75 4.25C4.91667 3.08333 6.33333 2.5 8 2.5C8.15556 2.5 8.30833 2.50556 8.45833 2.51667C8.60833 2.52778 8.75556 2.54444 8.9 2.56667C8.44444 2.88889 8.08056 3.30833 7.80833 3.825C7.53611 4.34167 7.4 4.9 7.4 5.5C7.4 6.5 7.75 7.35 8.45 8.05C9.15 8.75 10 9.1 11 9.1C11.6111 9.1 12.1722 8.96389 12.6833 8.69167C13.1944 8.41945 13.6111 8.05556 13.9333 7.6C13.9556 7.74444 13.9722 7.89167 13.9833 8.04167C13.9944 8.19167 14 8.34444 14 8.5C14 10.1667 13.4167 11.5833 12.25 12.75C11.0833 13.9167 9.66667 14.5 8 14.5ZM8 13.1667C8.97778 13.1667 9.85556 12.8972 10.6333 12.3583C11.4111 11.8194 11.9778 11.1167 12.3333 10.25C12.1111 10.3056 11.8889 10.35 11.6667 10.3833C11.4444 10.4167 11.2222 10.4333 11 10.4333C9.63333 10.4333 8.46944 9.95278 7.50833 8.99167C6.54722 8.03056 6.06667 6.86667 6.06667 5.5C6.06667 5.27778 6.08333 5.05556 6.11667 4.83333C6.15 4.61111 6.19444 4.38889 6.25 4.16667C5.38333 4.52222 4.68056 5.08889 4.14167 5.86667C3.60278 6.64444 3.33333 7.52222 3.33333 8.5C3.33333 9.78889 3.78889 10.8889 4.7 11.8C5.61111 12.7111 6.71111 13.1667 8 13.1667Z" fill="#F46628"/>
</g>
</svg>
