<svg width="30" height="30" viewBox="0 0 30 30" fill="none" xmlns="http://www.w3.org/2000/svg">
<mask id="mask0_1240_31437" style="mask-type:alpha" maskUnits="userSpaceOnUse" x="8" y="8" width="14" height="14">
<rect x="8" y="8" width="14" height="14" fill="#D9D9D9"/>
</mask>
<g mask="url(#mask0_1240_31437)">
<path d="M10.3333 19.6667H11.2833L17.8 13.15L16.85 12.2L10.3333 18.7167V19.6667ZM9 21V18.1667L17.8 9.38333C17.9333 9.26111 18.0806 9.16667 18.2417 9.1C18.4028 9.03333 18.5722 9 18.75 9C18.9278 9 19.1 9.03333 19.2667 9.1C19.4333 9.16667 19.5778 9.26667 19.7 9.4L20.6167 10.3333C20.75 10.4556 20.8472 10.6 20.9083 10.7667C20.9694 10.9333 21 11.1 21 11.2667C21 11.4444 20.9694 11.6139 20.9083 11.775C20.8472 11.9361 20.75 12.0833 20.6167 12.2167L11.8333 21H9ZM17.3167 12.6833L16.85 12.2L17.8 13.15L17.3167 12.6833Z" fill="#979797"/>
</g>
</svg>
