<svg width="20" height="19" viewBox="0 0 20 19" fill="none" xmlns="http://www.w3.org/2000/svg">
<mask id="mask0_1243_50945" style="mask-type:alpha" maskUnits="userSpaceOnUse" x="0" y="0" width="20" height="19">
<rect x="0.5" width="19" height="19" fill="#D9D9D9"/>
</mask>
<g mask="url(#mask0_1243_50945)">
<path fill-rule="evenodd" clip-rule="evenodd" d="M1.97266 0.792969H18.0391L15.7782 16.1799C15.6069 17.3457 14.6067 18.2096 13.4284 18.2096H6.30113C5.10655 18.2096 4.09786 17.3223 3.94552 16.1375L1.97266 0.792969ZM3.77259 2.3763L5.51593 15.9356C5.56671 16.3305 5.90294 16.6263 6.30113 16.6263H13.4284C13.8212 16.6263 14.1546 16.3383 14.2117 15.9497L16.2061 2.3763H3.77259Z" fill="white"/>
<path fill-rule="evenodd" clip-rule="evenodd" d="M7.22679 7.1263C7.4454 7.1263 7.62263 6.94908 7.62263 6.73047C7.62263 6.51186 7.4454 6.33464 7.22679 6.33464C7.00818 6.33464 6.83096 6.51186 6.83096 6.73047C6.83096 6.94908 7.00818 7.1263 7.22679 7.1263ZM7.22679 7.91797C7.88263 7.91797 8.41429 7.38631 8.41429 6.73047C8.41429 6.07463 7.88263 5.54297 7.22679 5.54297C6.57095 5.54297 6.03929 6.07463 6.03929 6.73047C6.03929 7.38631 6.57095 7.91797 7.22679 7.91797Z" fill="white"/>
<path fill-rule="evenodd" clip-rule="evenodd" d="M11.1851 9.5013C11.4037 9.5013 11.581 9.32408 11.581 9.10547C11.581 8.88686 11.4037 8.70963 11.1851 8.70963C10.9665 8.70963 10.7893 8.88686 10.7893 9.10547C10.7893 9.32408 10.9665 9.5013 11.1851 9.5013ZM11.1851 10.293C11.841 10.293 12.3726 9.76131 12.3726 9.10547C12.3726 8.44963 11.841 7.91797 11.1851 7.91797C10.5293 7.91797 9.99763 8.44963 9.99763 9.10547C9.99763 9.76131 10.5293 10.293 11.1851 10.293Z" fill="white"/>
<path fill-rule="evenodd" clip-rule="evenodd" d="M8.01846 12.668C8.23707 12.668 8.41429 12.4907 8.41429 12.2721C8.41429 12.0535 8.23707 11.8763 8.01846 11.8763C7.79985 11.8763 7.62263 12.0535 7.62263 12.2721C7.62263 12.4907 7.79985 12.668 8.01846 12.668ZM8.01846 13.4596C8.6743 13.4596 9.20596 12.928 9.20596 12.2721C9.20596 11.6163 8.6743 11.0846 8.01846 11.0846C7.36262 11.0846 6.83096 11.6163 6.83096 12.2721C6.83096 12.928 7.36262 13.4596 8.01846 13.4596Z" fill="white"/>
<path fill-rule="evenodd" clip-rule="evenodd" d="M11.9768 15.043C12.1954 15.043 12.3726 14.8657 12.3726 14.6471C12.3726 14.4285 12.1954 14.2513 11.9768 14.2513C11.7582 14.2513 11.581 14.4285 11.581 14.6471C11.581 14.8657 11.7582 15.043 11.9768 15.043ZM11.9768 15.8346C12.6326 15.8346 13.1643 15.303 13.1643 14.6471C13.1643 13.9913 12.6326 13.4596 11.9768 13.4596C11.321 13.4596 10.7893 13.9913 10.7893 14.6471C10.7893 15.303 11.321 15.8346 11.9768 15.8346Z" fill="white"/>
<path fill-rule="evenodd" clip-rule="evenodd" d="M12.7685 5.54297C12.9871 5.54297 13.1643 5.36575 13.1643 5.14714C13.1643 4.92852 12.9871 4.7513 12.7685 4.7513C12.5498 4.7513 12.3726 4.92852 12.3726 5.14714C12.3726 5.36575 12.5498 5.54297 12.7685 5.54297ZM12.7685 6.33464C13.4243 6.33464 13.956 5.80297 13.956 5.14714C13.956 4.4913 13.4243 3.95964 12.7685 3.95964C12.1126 3.95964 11.581 4.4913 11.581 5.14714C11.581 5.80297 12.1126 6.33464 12.7685 6.33464Z" fill="white"/>
</g>
</svg>
