<svg width="16" height="17" viewBox="0 0 16 17" fill="none" xmlns="http://www.w3.org/2000/svg">
<mask id="mask0_890_23049" style="mask-type:alpha" maskUnits="userSpaceOnUse" x="0" y="0" width="16" height="17">
<rect y="0.5" width="16" height="16" fill="#D9D9D9"/>
</mask>
<g mask="url(#mask0_890_23049)">
<path d="M7.96927 12.5007C8.2026 12.5007 8.39983 12.4201 8.56094 12.259C8.72205 12.0979 8.8026 11.9007 8.8026 11.6673C8.8026 11.434 8.72205 11.2368 8.56094 11.0757C8.39983 10.9145 8.2026 10.834 7.96927 10.834C7.73594 10.834 7.53871 10.9145 7.3776 11.0757C7.21649 11.2368 7.13594 11.434 7.13594 11.6673C7.13594 11.9007 7.21649 12.0979 7.3776 12.259C7.53871 12.4201 7.73594 12.5007 7.96927 12.5007ZM7.36927 9.93398H8.6026C8.6026 9.56732 8.64427 9.27843 8.7276 9.06732C8.81094 8.85621 9.04705 8.56732 9.43594 8.20065C9.72483 7.91176 9.9526 7.63676 10.1193 7.37565C10.2859 7.11454 10.3693 6.80065 10.3693 6.43398C10.3693 5.81176 10.1415 5.33398 9.68594 5.00065C9.23038 4.66732 8.69149 4.50065 8.06927 4.50065C7.43594 4.50065 6.92205 4.66732 6.5276 5.00065C6.13316 5.33398 5.85816 5.73398 5.7026 6.20065L6.8026 6.63398C6.85816 6.43398 6.98316 6.21732 7.1776 5.98398C7.37205 5.75065 7.66927 5.63398 8.06927 5.63398C8.42483 5.63398 8.69149 5.73121 8.86927 5.92565C9.04705 6.1201 9.13594 6.33398 9.13594 6.56732C9.13594 6.78954 9.06927 6.99787 8.93594 7.19232C8.8026 7.38676 8.63594 7.56732 8.43594 7.73398C7.94705 8.16732 7.64705 8.49509 7.53594 8.71732C7.42483 8.93954 7.36927 9.3451 7.36927 9.93398ZM8.0026 15.1673C7.08038 15.1673 6.21372 14.9923 5.4026 14.6423C4.59149 14.2923 3.88594 13.8173 3.28594 13.2173C2.68594 12.6173 2.21094 11.9118 1.86094 11.1007C1.51094 10.2895 1.33594 9.42287 1.33594 8.50065C1.33594 7.57843 1.51094 6.71176 1.86094 5.90065C2.21094 5.08954 2.68594 4.38398 3.28594 3.78398C3.88594 3.18398 4.59149 2.70898 5.4026 2.35898C6.21372 2.00898 7.08038 1.83398 8.0026 1.83398C8.92483 1.83398 9.79149 2.00898 10.6026 2.35898C11.4137 2.70898 12.1193 3.18398 12.7193 3.78398C13.3193 4.38398 13.7943 5.08954 14.1443 5.90065C14.4943 6.71176 14.6693 7.57843 14.6693 8.50065C14.6693 9.42287 14.4943 10.2895 14.1443 11.1007C13.7943 11.9118 13.3193 12.6173 12.7193 13.2173C12.1193 13.8173 11.4137 14.2923 10.6026 14.6423C9.79149 14.9923 8.92483 15.1673 8.0026 15.1673ZM8.0026 13.834C9.49149 13.834 10.7526 13.3173 11.7859 12.284C12.8193 11.2507 13.3359 9.98954 13.3359 8.50065C13.3359 7.01176 12.8193 5.75065 11.7859 4.71732C10.7526 3.68398 9.49149 3.16732 8.0026 3.16732C6.51371 3.16732 5.2526 3.68398 4.21927 4.71732C3.18594 5.75065 2.66927 7.01176 2.66927 8.50065C2.66927 9.98954 3.18594 11.2507 4.21927 12.284C5.2526 13.3173 6.51371 13.834 8.0026 13.834Z" fill="#818181"/>
</g>
</svg>
