<svg width="46" height="46" viewBox="0 0 46 46" fill="none" xmlns="http://www.w3.org/2000/svg">
<mask id="mask0_443_17682" style="mask-type:alpha" maskUnits="userSpaceOnUse" x="0" y="0" width="46" height="46">
<rect x="0.499512" width="45.355" height="45.355" fill="#D9D9D9"/>
</mask>
<g mask="url(#mask0_443_17682)">
<path d="M18.2325 33.1566C14.407 33.1566 11.1619 31.9723 8.49713 29.6036C5.83238 27.2349 4.5 24.3504 4.5 20.95V10.4871C4.5 9.52803 4.88418 8.70699 5.65255 8.024C6.42091 7.34101 7.34458 6.99951 8.42356 6.99951H32.9458C34.8422 6.99951 36.4607 7.59531 37.8012 8.78691C39.1418 9.97851 39.8121 11.4172 39.8121 13.1028C39.8121 14.7885 39.1418 16.2272 37.8012 17.4188C36.4607 18.6104 34.8422 19.2062 32.9458 19.2062H31.9649V20.95C31.9649 24.3504 30.6326 27.2349 27.9678 29.6036C25.3031 31.9723 22.0579 33.1566 18.2325 33.1566ZM8.42356 15.7185H28.0414V10.4871H8.42356V15.7185ZM18.2325 29.669C20.9463 29.669 23.2595 28.8189 25.1723 27.1187C27.085 25.4185 28.0414 23.3622 28.0414 20.95V19.2062H8.42356V20.95C8.42356 23.3622 9.37993 25.4185 11.2927 27.1187C13.2054 28.8189 15.5187 29.669 18.2325 29.669ZM31.9649 15.7185H32.9458C33.7632 15.7185 34.458 15.4642 35.0302 14.9556C35.6024 14.447 35.8885 13.8294 35.8885 13.1028C35.8885 12.3762 35.6024 11.7586 35.0302 11.25C34.458 10.7414 33.7632 10.4871 32.9458 10.4871H31.9649V15.7185ZM4.5 38.388V34.9004H35.8885V38.388H4.5Z" fill="#94A22F"/>
</g>
</svg>
