<svg width="46" height="46" viewBox="0 0 46 46" fill="none" xmlns="http://www.w3.org/2000/svg">
<mask id="mask0_443_17705" style="mask-type:alpha" maskUnits="userSpaceOnUse" x="0" y="0" width="46" height="46">
<rect x="0.270996" y="0.231201" width="45.355" height="45.355" fill="#D9D9D9"/>
</mask>
<g mask="url(#mask0_443_17705)">
<path d="M22.5242 40.2372C18.8324 40.2372 15.7006 38.9513 13.129 36.3797C10.5573 33.808 9.27148 30.6763 9.27148 26.9844C9.27148 24.0183 10.1471 21.3599 11.8984 19.0091C13.6496 16.6584 15.9452 15.0728 18.785 14.2524C18.154 14.0946 17.5387 13.8658 16.9391 13.566C16.3396 13.2663 15.8032 12.8797 15.3299 12.4064C14.2886 11.3651 13.6181 10.1267 13.3183 8.69094C13.0185 7.25523 12.9475 5.79585 13.1053 4.31281C14.5884 4.15504 16.0477 4.22603 17.4834 4.5258C18.9192 4.82556 20.1577 5.49609 21.1989 6.53737C21.9247 7.26312 22.4532 8.08352 22.7845 8.99859C23.1158 9.91366 23.3288 10.8761 23.4235 11.8858C23.8337 10.9076 24.3307 9.98466 24.9144 9.11692C25.4982 8.24918 26.1529 7.45244 26.8787 6.7267C27.2258 6.3796 27.6675 6.20605 28.2039 6.20605C28.7404 6.20605 29.1821 6.3796 29.5292 6.7267C29.8763 7.07379 30.0499 7.51555 30.0499 8.05197C30.0499 8.58839 29.8763 9.03015 29.5292 9.37724C28.835 10.0714 28.2197 10.8366 27.6833 11.6728C27.1469 12.509 26.7525 13.4004 26.5 14.347C29.2768 15.2305 31.5171 16.8319 33.2211 19.1511C34.925 21.4704 35.7769 24.0815 35.7769 26.9844C35.7769 30.6763 34.4911 33.808 31.9194 36.3797C29.3478 38.9513 26.216 40.2372 22.5242 40.2372ZM22.5242 36.4507C25.1432 36.4507 27.3757 35.5277 29.2216 33.6818C31.0675 31.8359 31.9904 29.6034 31.9904 26.9844C31.9904 24.3654 31.0675 22.133 29.2216 20.2871C27.3757 18.4412 25.1432 17.5182 22.5242 17.5182C19.9052 17.5182 17.6728 18.4412 15.8269 20.2871C13.9809 22.133 13.058 24.3654 13.058 26.9844C13.058 29.6034 13.9809 31.8359 15.8269 33.6818C17.6728 35.5277 19.9052 36.4507 22.5242 36.4507Z" fill="#94A22F"/>
</g>
</svg>
