<svg width="36" height="36" viewBox="0 0 36 36" fill="none" xmlns="http://www.w3.org/2000/svg">
<rect width="36" height="36" rx="18" fill="#F46628"/>
<mask id="mask0_441_9171" style="mask-type:alpha" maskUnits="userSpaceOnUse" x="6" y="6" width="24" height="24">
<rect x="6" y="6" width="24" height="24" fill="#D9D9D9"/>
</mask>
<g mask="url(#mask0_441_9171)">
<path d="M18.3636 19.9091C17.6061 19.9091 16.9621 19.6439 16.4318 19.1136C15.9015 18.5833 15.6364 17.9394 15.6364 17.1818V11.7273C15.6364 10.9697 15.9015 10.3258 16.4318 9.79545C16.9621 9.26515 17.6061 9 18.3636 9C19.1212 9 19.7652 9.26515 20.2955 9.79545C20.8258 10.3258 21.0909 10.9697 21.0909 11.7273V17.1818C21.0909 17.9394 20.8258 18.5833 20.2955 19.1136C19.7652 19.6439 19.1212 19.9091 18.3636 19.9091ZM17.4545 26.2727V23.4773C15.8788 23.2652 14.5758 22.5606 13.5455 21.3636C12.5152 20.1667 12 18.7727 12 17.1818H13.8182C13.8182 18.4394 14.2614 19.5114 15.1477 20.3977C16.0341 21.2841 17.1061 21.7273 18.3636 21.7273C19.6212 21.7273 20.6932 21.2841 21.5795 20.3977C22.4659 19.5114 22.9091 18.4394 22.9091 17.1818H24.7273C24.7273 18.7727 24.2121 20.1667 23.1818 21.3636C22.1515 22.5606 20.8485 23.2652 19.2727 23.4773V26.2727H17.4545ZM18.3636 18.0909C18.6212 18.0909 18.8371 18.0038 19.0114 17.8295C19.1856 17.6553 19.2727 17.4394 19.2727 17.1818V11.7273C19.2727 11.4697 19.1856 11.2538 19.0114 11.0795C18.8371 10.9053 18.6212 10.8182 18.3636 10.8182C18.1061 10.8182 17.8902 10.9053 17.7159 11.0795C17.5417 11.2538 17.4545 11.4697 17.4545 11.7273V17.1818C17.4545 17.4394 17.5417 17.6553 17.7159 17.8295C17.8902 18.0038 18.1061 18.0909 18.3636 18.0909Z" fill="white"/>
</g>
</svg>
