<svg width="47" height="46" viewBox="0 0 47 46" fill="none" xmlns="http://www.w3.org/2000/svg">
<mask id="mask0_443_17720" style="mask-type:alpha" maskUnits="userSpaceOnUse" x="0" y="0" width="47" height="46">
<rect x="0.755371" y="0.230957" width="45.355" height="45.355" fill="#D9D9D9"/>
</mask>
<g mask="url(#mask0_443_17720)">
<path d="M22.4491 41.5048C18.1005 41.5048 14.3977 40.0008 11.3405 36.9927C8.28344 33.9846 6.75488 30.3227 6.75488 26.0067C6.75488 23.9469 7.15541 21.9769 7.95647 20.0969C8.75753 18.2168 9.89373 16.5575 11.3651 15.1188L22.4491 4.23096L33.5332 15.1188C35.0045 16.5575 36.1407 18.2168 36.9418 20.0969C37.7429 21.9769 38.1434 23.9469 38.1434 26.0067C38.1434 30.3227 36.6148 33.9846 33.5577 36.9927C30.5006 40.0008 26.7978 41.5048 22.4491 41.5048ZM10.6784 26.0067H34.2198C34.2198 24.47 33.9256 23.0068 33.337 21.6172C32.7485 20.2276 31.8984 19.0097 30.7867 17.9634L22.4491 9.72394L14.1116 17.9634C12.9999 19.0097 12.1498 20.2276 11.5612 21.6172C10.9727 23.0068 10.6784 24.47 10.6784 26.0067Z" fill="#94A22F"/>
</g>
</svg>
