<svg width="60" height="60" viewBox="0 0 60 60" fill="none" xmlns="http://www.w3.org/2000/svg">
<path d="M26.3868 29.8802L29.2778 32.9719L35.7474 27.3374M41.934 25.8691V35.9319C41.934 39.2456 39.2477 41.9319 35.934 41.9319H25.25C21.9363 41.9319 19.25 39.2456 19.25 35.9319V24.3027C19.25 20.989 21.9363 18.3027 25.25 18.3027H34.5537C36.2766 18.3027 37.9164 19.0434 39.0554 20.336L40.4356 21.9023C41.4012 22.9981 41.934 24.4085 41.934 25.8691Z" stroke="#F57A44" stroke-width="2.5" stroke-linecap="round"/>
<path d="M30 2V6.5787" stroke="#F8AF90" stroke-width="3" stroke-linecap="round"/>
<path d="M30 53.4209V57.9996" stroke="#F8AF90" stroke-width="3" stroke-linecap="round"/>
<path d="M2 30L6.5787 30" stroke="#F8AF90" stroke-width="3" stroke-linecap="round"/>
<path d="M53.4219 30L58.0006 30" stroke="#F8AF90" stroke-width="3" stroke-linecap="round"/>
<path d="M5.75 44L9.71527 41.7107" stroke="#F8AF90" stroke-width="3" stroke-linecap="round"/>
<path d="M50.2852 18.2891L54.2504 15.9997" stroke="#F8AF90" stroke-width="3" stroke-linecap="round"/>
<path d="M16 54.249L18.2893 50.2838" stroke="#F8AF90" stroke-width="3" stroke-linecap="round"/>
<path d="M41.7109 9.7168L44.0003 5.75153" stroke="#F8AF90" stroke-width="3" stroke-linecap="round"/>
<path d="M44 54.249L41.7107 50.2838" stroke="#F8AF90" stroke-width="3" stroke-linecap="round"/>
<path d="M18.2891 9.7168L15.9997 5.75153" stroke="#F8AF90" stroke-width="3" stroke-linecap="round"/>
<path d="M54.25 44.001L50.2847 41.7116" stroke="#F8AF90" stroke-width="3" stroke-linecap="round"/>
<path d="M9.71484 18.29L5.74958 16.0007" stroke="#F8AF90" stroke-width="3" stroke-linecap="round"/>
</svg>
