<svg width="390" height="300" viewBox="0 0 390 300" fill="none" xmlns="http://www.w3.org/2000/svg">
<path d="M71.5583 123.186V146.814" stroke="white" stroke-width="5" stroke-linecap="round" stroke-linejoin="round"/>
<path d="M60 127.561V142.438" stroke="white" stroke-width="5" stroke-linecap="round" stroke-linejoin="round"/>
<path d="M83.125 106.559V163.443" stroke="white" stroke-width="5" stroke-linecap="round" stroke-linejoin="round"/>
<path d="M94.6797 118.809V151.189" stroke="white" stroke-width="5" stroke-linecap="round" stroke-linejoin="round"/>
<path d="M106.238 124.936V145.064" stroke="white" stroke-width="5" stroke-linecap="round" stroke-linejoin="round"/>
<path d="M117.797 116.184V153.815" stroke="white" stroke-width="5" stroke-linecap="round" stroke-linejoin="round"/>
<circle cx="193.797" cy="135" r="57" fill="white" fill-opacity="0.44" stroke="#FB6B2B" stroke-width="6"/>
<path d="M154.719 174.609L234.575 94.7533" stroke="#FB6B2B" stroke-width="6"/>
<path d="M170.797 166.224V104C170.797 103.448 171.245 103 171.797 103H219.074C219.842 103 220.323 103.829 219.942 104.496L214.032 114.838C213.946 114.989 213.9 115.161 213.9 115.335V166.224C213.9 166.776 213.453 167.224 212.9 167.224H171.797C171.245 167.224 170.797 166.776 170.797 166.224Z" fill="white" fill-opacity="0.8" stroke="black" stroke-width="3" stroke-linecap="round"/>
<path d="M173 116H185" stroke="#606060" stroke-width="2" stroke-linecap="round"/>
<path d="M173 121H182" stroke="#606060" stroke-width="2" stroke-linecap="round"/>
<path d="M173 126H182" stroke="#606060" stroke-width="2" stroke-linecap="round"/>
<path d="M173 131H185" stroke="#606060" stroke-width="2" stroke-linecap="round"/>
<path d="M173 137H182" stroke="#606060" stroke-width="2" stroke-linecap="round"/>
<path d="M173 142H182" stroke="#606060" stroke-width="2" stroke-linecap="round"/>
<path d="M173 147H185" stroke="#606060" stroke-width="2" stroke-linecap="round"/>
<path d="M173 152H182" stroke="#606060" stroke-width="2" stroke-linecap="round"/>
<path d="M173 158H182" stroke="#606060" stroke-width="2" stroke-linecap="round"/>
<path d="M269.797 127.561V142.438" stroke="white" stroke-width="5" stroke-linecap="round" stroke-linejoin="round"/>
<path d="M281.797 116.184V153.815" stroke="white" stroke-width="5" stroke-linecap="round" stroke-linejoin="round"/>
<path d="M293.797 123.186V146.814" stroke="white" stroke-width="5" stroke-linecap="round" stroke-linejoin="round"/>
<path d="M305.797 108L305.797 162" stroke="white" stroke-width="5" stroke-linecap="round" stroke-linejoin="round"/>
<path d="M317.797 116.184V153.815" stroke="white" stroke-width="5" stroke-linecap="round" stroke-linejoin="round"/>
<path d="M329.797 127L329.797 143" stroke="white" stroke-width="5" stroke-linecap="round" stroke-linejoin="round"/>
<path d="M168.435 211.438H165.946C165.901 211.116 165.808 210.83 165.668 210.58C165.527 210.326 165.348 210.11 165.128 209.932C164.908 209.754 164.654 209.617 164.366 209.523C164.082 209.428 163.774 209.381 163.44 209.381C162.838 209.381 162.313 209.53 161.866 209.83C161.42 210.125 161.073 210.557 160.827 211.125C160.58 211.689 160.457 212.375 160.457 213.182C160.457 214.011 160.58 214.708 160.827 215.273C161.077 215.837 161.425 216.263 161.872 216.551C162.319 216.839 162.836 216.983 163.423 216.983C163.753 216.983 164.058 216.939 164.338 216.852C164.622 216.765 164.874 216.638 165.094 216.472C165.313 216.301 165.495 216.095 165.639 215.852C165.787 215.61 165.889 215.333 165.946 215.023L168.435 215.034C168.37 215.568 168.209 216.083 167.952 216.58C167.698 217.072 167.355 217.513 166.923 217.903C166.495 218.29 165.984 218.597 165.389 218.824C164.798 219.047 164.13 219.159 163.384 219.159C162.346 219.159 161.418 218.924 160.599 218.455C159.785 217.985 159.141 217.305 158.668 216.415C158.198 215.525 157.963 214.447 157.963 213.182C157.963 211.913 158.202 210.833 158.679 209.943C159.156 209.053 159.804 208.375 160.622 207.909C161.44 207.439 162.361 207.205 163.384 207.205C164.058 207.205 164.683 207.299 165.259 207.489C165.838 207.678 166.351 207.955 166.798 208.318C167.245 208.678 167.609 209.119 167.889 209.642C168.173 210.165 168.355 210.763 168.435 211.438ZM175.75 215.284V210.273H178.17V219H175.847V217.415H175.756C175.559 217.926 175.231 218.337 174.773 218.648C174.318 218.958 173.763 219.114 173.108 219.114C172.525 219.114 172.011 218.981 171.568 218.716C171.125 218.451 170.778 218.074 170.528 217.585C170.282 217.097 170.157 216.511 170.153 215.83V210.273H172.574V215.398C172.578 215.913 172.716 216.32 172.989 216.619C173.261 216.919 173.627 217.068 174.085 217.068C174.377 217.068 174.65 217.002 174.903 216.869C175.157 216.733 175.362 216.532 175.517 216.267C175.676 216.002 175.754 215.674 175.75 215.284ZM180.107 222.273V210.273H182.493V211.739H182.601C182.707 211.504 182.86 211.265 183.061 211.023C183.266 210.777 183.531 210.572 183.857 210.409C184.186 210.242 184.595 210.159 185.084 210.159C185.72 210.159 186.307 210.326 186.845 210.659C187.383 210.989 187.813 211.487 188.135 212.153C188.457 212.816 188.618 213.648 188.618 214.648C188.618 215.621 188.461 216.443 188.146 217.114C187.836 217.78 187.411 218.286 186.874 218.631C186.339 218.972 185.741 219.142 185.078 219.142C184.608 219.142 184.209 219.064 183.879 218.909C183.554 218.754 183.286 218.559 183.078 218.324C182.87 218.085 182.711 217.845 182.601 217.602H182.527V222.273H180.107ZM182.476 214.636C182.476 215.155 182.548 215.608 182.692 215.994C182.836 216.381 183.044 216.682 183.317 216.898C183.589 217.11 183.921 217.216 184.311 217.216C184.705 217.216 185.038 217.108 185.311 216.892C185.584 216.672 185.79 216.369 185.93 215.983C186.074 215.593 186.146 215.144 186.146 214.636C186.146 214.133 186.076 213.689 185.936 213.307C185.796 212.924 185.589 212.625 185.317 212.409C185.044 212.193 184.709 212.085 184.311 212.085C183.917 212.085 183.584 212.189 183.311 212.398C183.042 212.606 182.836 212.902 182.692 213.284C182.548 213.667 182.476 214.117 182.476 214.636ZM193.98 219V207.364H201.685V209.392H196.44V212.165H201.173V214.193H196.44V219H193.98ZM203.153 219V210.273H205.5V211.795H205.591C205.75 211.254 206.017 210.845 206.392 210.568C206.767 210.288 207.199 210.148 207.688 210.148C207.809 210.148 207.939 210.155 208.08 210.17C208.22 210.186 208.343 210.206 208.449 210.233V212.381C208.335 212.347 208.178 212.316 207.977 212.29C207.777 212.263 207.593 212.25 207.426 212.25C207.07 212.25 206.752 212.328 206.472 212.483C206.195 212.634 205.975 212.847 205.812 213.119C205.653 213.392 205.574 213.706 205.574 214.062V219H203.153ZM213.271 219.17C212.374 219.17 211.601 218.989 210.953 218.625C210.309 218.258 209.813 217.739 209.464 217.068C209.116 216.394 208.942 215.597 208.942 214.676C208.942 213.778 209.116 212.991 209.464 212.312C209.813 211.634 210.304 211.106 210.936 210.727C211.572 210.348 212.319 210.159 213.175 210.159C213.75 210.159 214.286 210.252 214.783 210.438C215.283 210.619 215.718 210.894 216.089 211.261C216.464 211.629 216.756 212.091 216.964 212.648C217.173 213.201 217.277 213.848 217.277 214.591V215.256H209.908V213.756H214.999C214.999 213.407 214.923 213.098 214.771 212.83C214.62 212.561 214.41 212.35 214.141 212.199C213.875 212.044 213.567 211.966 213.214 211.966C212.847 211.966 212.521 212.051 212.237 212.222C211.957 212.388 211.737 212.614 211.578 212.898C211.419 213.178 211.338 213.491 211.334 213.835V215.261C211.334 215.693 211.413 216.066 211.572 216.381C211.735 216.695 211.964 216.938 212.26 217.108C212.555 217.278 212.906 217.364 213.311 217.364C213.58 217.364 213.826 217.326 214.05 217.25C214.273 217.174 214.464 217.061 214.624 216.909C214.783 216.758 214.904 216.572 214.987 216.352L217.226 216.5C217.112 217.038 216.879 217.508 216.527 217.909C216.179 218.307 215.728 218.617 215.175 218.841C214.625 219.061 213.991 219.17 213.271 219.17ZM222.834 219.17C221.936 219.17 221.163 218.989 220.516 218.625C219.872 218.258 219.375 217.739 219.027 217.068C218.679 216.394 218.504 215.597 218.504 214.676C218.504 213.778 218.679 212.991 219.027 212.312C219.375 211.634 219.866 211.106 220.499 210.727C221.135 210.348 221.881 210.159 222.737 210.159C223.313 210.159 223.849 210.252 224.345 210.438C224.845 210.619 225.281 210.894 225.652 211.261C226.027 211.629 226.319 212.091 226.527 212.648C226.735 213.201 226.839 213.848 226.839 214.591V215.256H219.47V213.756H224.561C224.561 213.407 224.485 213.098 224.334 212.83C224.182 212.561 223.972 212.35 223.703 212.199C223.438 212.044 223.129 211.966 222.777 211.966C222.41 211.966 222.084 212.051 221.8 212.222C221.519 212.388 221.3 212.614 221.141 212.898C220.982 213.178 220.9 213.491 220.896 213.835V215.261C220.896 215.693 220.976 216.066 221.135 216.381C221.298 216.695 221.527 216.938 221.822 217.108C222.118 217.278 222.468 217.364 222.874 217.364C223.143 217.364 223.389 217.326 223.612 217.25C223.836 217.174 224.027 217.061 224.186 216.909C224.345 216.758 224.466 216.572 224.55 216.352L226.788 216.5C226.675 217.038 226.442 217.508 226.089 217.909C225.741 218.307 225.29 218.617 224.737 218.841C224.188 219.061 223.554 219.17 222.834 219.17ZM231.311 207.364L231.089 215.511H229.01L228.783 207.364H231.311ZM230.05 219.148C229.675 219.148 229.353 219.015 229.084 218.75C228.815 218.481 228.682 218.159 228.686 217.784C228.682 217.413 228.815 217.095 229.084 216.83C229.353 216.564 229.675 216.432 230.05 216.432C230.41 216.432 230.726 216.564 230.999 216.83C231.271 217.095 231.41 217.413 231.413 217.784C231.41 218.034 231.343 218.263 231.214 218.472C231.089 218.676 230.925 218.841 230.72 218.966C230.516 219.087 230.292 219.148 230.05 219.148Z" fill="black"/>
</svg>
