<svg width="24" height="24" viewBox="0 0 24 24" fill="none" xmlns="http://www.w3.org/2000/svg">
<mask id="mask0_1670_9322" style="mask-type:alpha" maskUnits="userSpaceOnUse" x="0" y="0" width="24" height="24">
<rect width="24" height="24" fill="#D9D9D9"/>
</mask>
<g mask="url(#mask0_1670_9322)">
<path d="M12 22C9.78333 22 7.89583 21.2333 6.3375 19.7C4.77917 18.1667 4 16.3 4 14.1C4 13.05 4.20417 12.0458 4.6125 11.0875C5.02083 10.1292 5.6 9.28333 6.35 8.55L12 3L17.65 8.55C18.4 9.28333 18.9792 10.1292 19.3875 11.0875C19.7958 12.0458 20 13.05 20 14.1C20 16.3 19.2208 18.1667 17.6625 19.7C16.1042 21.2333 14.2167 22 12 22ZM6 14.1H18C18 13.3167 17.85 12.5708 17.55 11.8625C17.25 11.1542 16.8167 10.5333 16.25 10L12 5.8L7.75 10C7.18333 10.5333 6.75 11.1542 6.45 11.8625C6.15 12.5708 6 13.3167 6 14.1Z" fill="#C3C3C3"/>
</g>
</svg>
