<svg width="24" height="24" viewBox="0 0 24 24" fill="none" xmlns="http://www.w3.org/2000/svg">
<mask id="mask0_1670_3120" style="mask-type:alpha" maskUnits="userSpaceOnUse" x="0" y="0" width="24" height="24">
<rect width="24" height="24" fill="#D9D9D9"/>
</mask>
<g mask="url(#mask0_1670_3120)">
<path d="M12 20.905C10.05 20.905 8.39583 20.3013 7.0375 19.0939C5.67917 17.8865 5 16.4161 5 14.6828C5 13.2902 5.4625 12.042 6.3875 10.9383C7.3125 9.83461 8.525 9.09017 10.025 8.70498C9.69167 8.63091 9.36667 8.5235 9.05 8.38276C8.73333 8.24202 8.45 8.06054 8.2 7.83831C7.65 7.34943 7.29583 6.76794 7.1375 6.09387C6.97917 5.4198 6.94167 4.73461 7.025 4.03831C7.80833 3.96424 8.57917 3.99757 9.3375 4.13831C10.0958 4.27905 10.75 4.59387 11.3 5.08276C11.6833 5.4235 11.9625 5.80868 12.1375 6.23831C12.3125 6.66794 12.425 7.1198 12.475 7.59387C12.6917 7.13461 12.9542 6.70128 13.2625 6.29387C13.5708 5.88646 13.9167 5.51239 14.3 5.17165C14.4833 5.00868 14.7167 4.9272 15 4.9272C15.2833 4.9272 15.5167 5.00868 15.7 5.17165C15.8833 5.33461 15.975 5.54202 15.975 5.79387C15.975 6.04572 15.8833 6.25313 15.7 6.41609C15.3333 6.74202 15.0083 7.10128 14.725 7.49387C14.4417 7.88646 14.2333 8.30498 14.1 8.74943C15.5667 9.16424 16.75 9.91609 17.65 11.005C18.55 12.0939 19 13.3198 19 14.6828C19 16.4161 18.3208 17.8865 16.9625 19.0939C15.6042 20.3013 13.95 20.905 12 20.905ZM12 19.1272C13.3833 19.1272 14.5625 18.6939 15.5375 17.8272C16.5125 16.9605 17 15.9124 17 14.6828C17 13.4531 16.5125 12.405 15.5375 11.5383C14.5625 10.6716 13.3833 10.2383 12 10.2383C10.6167 10.2383 9.4375 10.6716 8.4625 11.5383C7.4875 12.405 7 13.4531 7 14.6828C7 15.9124 7.4875 16.9605 8.4625 17.8272C9.4375 18.6939 10.6167 19.1272 12 19.1272Z" fill="#C3C3C3"/>
</g>
</svg>
