<svg width="24" height="24" viewBox="0 0 24 24" fill="none" xmlns="http://www.w3.org/2000/svg">
<mask id="mask0_1670_9281" style="mask-type:alpha" maskUnits="userSpaceOnUse" x="0" y="0" width="24" height="24">
<rect width="24" height="24" fill="#D9D9D9"/>
</mask>
<g mask="url(#mask0_1670_9281)">
<path d="M10 17.3333C8.05 17.3333 6.39583 16.7296 5.0375 15.5222C3.67917 14.3148 3 12.8444 3 11.1111V5.77778C3 5.28889 3.19583 4.87037 3.5875 4.52222C3.97917 4.17407 4.45 4 5 4H17.5C18.4667 4 19.2917 4.3037 19.975 4.91111C20.6583 5.51852 21 6.25185 21 7.11111C21 7.97037 20.6583 8.7037 19.975 9.31111C19.2917 9.91852 18.4667 10.2222 17.5 10.2222H17V11.1111C17 12.8444 16.3208 14.3148 14.9625 15.5222C13.6042 16.7296 11.95 17.3333 10 17.3333ZM5 8.44444H15V5.77778H5V8.44444ZM10 15.5556C11.3833 15.5556 12.5625 15.1222 13.5375 14.2556C14.5125 13.3889 15 12.3407 15 11.1111V10.2222H5V11.1111C5 12.3407 5.4875 13.3889 6.4625 14.2556C7.4375 15.1222 8.61667 15.5556 10 15.5556ZM17 8.44444H17.5C17.9167 8.44444 18.2708 8.31482 18.5625 8.05556C18.8542 7.7963 19 7.48148 19 7.11111C19 6.74074 18.8542 6.42593 18.5625 6.16667C18.2708 5.90741 17.9167 5.77778 17.5 5.77778H17V8.44444ZM3 20V18.2222H19V20H3Z" fill="#C3C3C3"/>
</g>
</svg>
