<svg width="135" height="32" viewBox="0 0 135 32" fill="none" xmlns="http://www.w3.org/2000/svg">
<path d="M10.7673 2.24219C15.1357 2.24219 18.8744 5.78471 18.8744 10.1531C18.8744 12.1942 17.9995 14.2146 16.748 15.6323C15.6563 16.8664 14.1294 18.2397 11.9397 18.1353C10.6423 18.0736 9.0332 16.936 9.0332 15.4566" stroke="white" stroke-width="3.15802" stroke-linecap="round" stroke-linejoin="round"/>
<path d="M11.3953 29.7603C16.077 29.7603 20.0831 25.9647 20.0831 21.283C20.0831 19.0964 19.4012 16.9762 18.0595 15.4573C16.8902 14.1346 15.4489 12.6062 12.68 12.448C11.3374 12.3713 9.03467 13.2391 9.03467 15.4573" stroke="white" stroke-width="3.15802" stroke-linecap="round" stroke-linejoin="round"/>
<path d="M2 15.4313V6.98876C2 4.36707 4.57264 2.24219 7.74651 2.24219H10.7669" stroke="white" stroke-width="3.15802" stroke-linecap="round" stroke-linejoin="round"/>
<path d="M2 15.625V24.672C2 27.4804 4.75776 29.7587 8.15788 29.7587H11.3935" stroke="white" stroke-width="3.15802" stroke-linecap="round" stroke-linejoin="round"/>
<path d="M21.9092 29.7323H26M23.5972 26.2715H26" stroke="#FAECE6" stroke-width="2.4715" stroke-linecap="round" stroke-linejoin="round"/>
<path d="M40.136 24V21.316H43.788C44.4627 21.316 44.9907 21.118 45.372 20.722C45.7533 20.326 45.944 19.842 45.944 19.27C45.944 18.874 45.856 18.522 45.68 18.214C45.504 17.906 45.2547 17.664 44.932 17.488C44.624 17.312 44.2427 17.224 43.788 17.224H40.136V14.606H43.502C44.074 14.606 44.536 14.4667 44.888 14.188C45.24 13.8947 45.416 13.4547 45.416 12.868C45.416 12.296 45.24 11.8707 44.888 11.592C44.536 11.2987 44.074 11.152 43.502 11.152H40.136V8.468H44.162C45.1593 8.468 46.0027 8.65133 46.692 9.018C47.396 9.38467 47.9313 9.876 48.298 10.492C48.6647 11.108 48.848 11.79 48.848 12.538C48.848 13.4913 48.54 14.298 47.924 14.958C47.308 15.618 46.3987 16.0727 45.196 16.322L45.284 15.156C46.5893 15.4053 47.594 15.9113 48.298 16.674C49.0167 17.4367 49.376 18.3753 49.376 19.49C49.376 20.3407 49.1633 21.1107 48.738 21.8C48.3273 22.4747 47.726 23.01 46.934 23.406C46.1567 23.802 45.218 24 44.118 24H40.136ZM37.496 24V8.468H40.906V24H37.496ZM51.2818 24V8.028H54.6478V24H51.2818ZM61.4841 24.22C60.5014 24.22 59.6214 23.978 58.8441 23.494C58.0814 23.01 57.4727 22.35 57.0181 21.514C56.5781 20.678 56.3581 19.7247 56.3581 18.654C56.3581 17.5833 56.5781 16.63 57.0181 15.794C57.4727 14.958 58.0814 14.298 58.8441 13.814C59.6214 13.33 60.5014 13.088 61.4841 13.088C62.2027 13.088 62.8481 13.2273 63.4201 13.506C64.0067 13.7847 64.4834 14.1733 64.8501 14.672C65.2167 15.156 65.4221 15.7133 65.4661 16.344V20.964C65.4221 21.5947 65.2167 22.1593 64.8501 22.658C64.4981 23.142 64.0287 23.5233 63.4421 23.802C62.8554 24.0807 62.2027 24.22 61.4841 24.22ZM62.1661 21.184C62.8847 21.184 63.4641 20.9493 63.9041 20.48C64.3441 19.996 64.5641 19.3873 64.5641 18.654C64.5641 18.1553 64.4614 17.7153 64.2561 17.334C64.0654 16.9527 63.7867 16.6593 63.4201 16.454C63.0681 16.234 62.6574 16.124 62.1881 16.124C61.7187 16.124 61.3007 16.234 60.9341 16.454C60.5821 16.6593 60.2961 16.9527 60.0761 17.334C59.8707 17.7153 59.7681 18.1553 59.7681 18.654C59.7681 19.138 59.8707 19.5707 60.0761 19.952C60.2814 20.3333 60.5674 20.634 60.9341 20.854C61.3007 21.074 61.7114 21.184 62.1661 21.184ZM64.4321 24V21.118L64.9381 18.522L64.4321 15.926V13.308H67.7321V24H64.4321ZM74.6561 24.22C73.6441 24.22 72.7421 23.978 71.9501 23.494C71.1727 23.01 70.5567 22.35 70.1021 21.514C69.6621 20.678 69.4421 19.7247 69.4421 18.654C69.4421 17.5833 69.6621 16.63 70.1021 15.794C70.5567 14.958 71.1727 14.298 71.9501 13.814C72.7421 13.33 73.6441 13.088 74.6561 13.088C75.3894 13.088 76.0494 13.2273 76.6361 13.506C77.2374 13.7847 77.7287 14.1733 78.1101 14.672C78.5061 15.156 78.7261 15.7133 78.7701 16.344V20.854C78.7261 21.4847 78.5134 22.0567 78.1321 22.57C77.7507 23.0687 77.2594 23.472 76.6581 23.78C76.0567 24.0733 75.3894 24.22 74.6561 24.22ZM75.2501 21.184C75.7341 21.184 76.1521 21.0813 76.5041 20.876C76.8561 20.656 77.1347 20.3553 77.3401 19.974C77.5454 19.5927 77.6481 19.1527 77.6481 18.654C77.6481 18.1553 77.5454 17.7227 77.3401 17.356C77.1494 16.9747 76.8707 16.674 76.5041 16.454C76.1521 16.234 75.7414 16.124 75.2721 16.124C74.8027 16.124 74.3847 16.234 74.0181 16.454C73.6661 16.674 73.3801 16.9747 73.1601 17.356C72.9547 17.7373 72.8521 18.17 72.8521 18.654C72.8521 19.138 72.9547 19.5707 73.1601 19.952C73.3654 20.3333 73.6514 20.634 74.0181 20.854C74.3847 21.074 74.7954 21.184 75.2501 21.184ZM80.8161 24H77.5161V21.118L78.0221 18.522L77.4501 15.926V8.028H80.8161V24ZM87.74 24.22C86.728 24.22 85.826 23.978 85.034 23.494C84.2567 23.01 83.6407 22.35 83.186 21.514C82.746 20.678 82.526 19.7247 82.526 18.654C82.526 17.5833 82.746 16.63 83.186 15.794C83.6407 14.958 84.2567 14.298 85.034 13.814C85.826 13.33 86.728 13.088 87.74 13.088C88.4734 13.088 89.1334 13.2273 89.72 13.506C90.3214 13.7847 90.8127 14.1733 91.194 14.672C91.59 15.156 91.81 15.7133 91.854 16.344V20.854C91.81 21.4847 91.5974 22.0567 91.216 22.57C90.8347 23.0687 90.3434 23.472 89.742 23.78C89.1407 24.0733 88.4734 24.22 87.74 24.22ZM88.334 21.184C88.818 21.184 89.236 21.0813 89.588 20.876C89.94 20.656 90.2187 20.3553 90.424 19.974C90.6294 19.5927 90.732 19.1527 90.732 18.654C90.732 18.1553 90.6294 17.7227 90.424 17.356C90.2334 16.9747 89.9547 16.674 89.588 16.454C89.236 16.234 88.8254 16.124 88.356 16.124C87.8867 16.124 87.4687 16.234 87.102 16.454C86.75 16.674 86.464 16.9747 86.244 17.356C86.0387 17.7373 85.936 18.17 85.936 18.654C85.936 19.138 86.0387 19.5707 86.244 19.952C86.4494 20.3333 86.7354 20.634 87.102 20.854C87.4687 21.074 87.8794 21.184 88.334 21.184ZM93.9 24H90.6V21.118L91.106 18.522L90.534 15.926V8.028H93.9V24ZM101.55 24.242C100.391 24.242 99.3574 24.0073 98.448 23.538C97.5534 23.054 96.8494 22.3867 96.336 21.536C95.8227 20.6853 95.566 19.7247 95.566 18.654C95.566 17.5833 95.8154 16.63 96.314 15.794C96.8274 14.9433 97.5167 14.276 98.382 13.792C99.2474 13.308 100.223 13.066 101.308 13.066C102.364 13.066 103.295 13.2933 104.102 13.748C104.909 14.2027 105.539 14.8333 105.994 15.64C106.463 16.4467 106.698 17.3707 106.698 18.412C106.698 18.6027 106.683 18.808 106.654 19.028C106.639 19.2333 106.603 19.4753 106.544 19.754L97.326 19.776V17.466L105.114 17.444L103.662 18.412C103.647 17.796 103.552 17.29 103.376 16.894C103.2 16.4833 102.936 16.1753 102.584 15.97C102.247 15.75 101.829 15.64 101.33 15.64C100.802 15.64 100.34 15.7647 99.944 16.014C99.5627 16.2487 99.262 16.586 99.042 17.026C98.8367 17.466 98.734 18.0013 98.734 18.632C98.734 19.2627 98.844 19.8053 99.064 20.26C99.2987 20.7 99.6214 21.0447 100.032 21.294C100.457 21.5287 100.956 21.646 101.528 21.646C102.056 21.646 102.533 21.558 102.958 21.382C103.383 21.1913 103.757 20.9127 104.08 20.546L105.928 22.394C105.4 23.01 104.762 23.472 104.014 23.78C103.266 24.088 102.445 24.242 101.55 24.242ZM108.323 24V13.308H111.689V24H108.323ZM111.689 18.126L110.281 17.026C110.559 15.7793 111.029 14.8113 111.689 14.122C112.349 13.4327 113.265 13.088 114.439 13.088C114.952 13.088 115.399 13.1687 115.781 13.33C116.177 13.4767 116.521 13.7113 116.815 14.034L114.813 16.564C114.666 16.4027 114.483 16.278 114.263 16.19C114.043 16.102 113.793 16.058 113.515 16.058C112.957 16.058 112.51 16.234 112.173 16.586C111.85 16.9233 111.689 17.4367 111.689 18.126ZM117.711 24V8.028H121.077V24H117.711ZM126.748 24.044L122.348 13.308H125.978L128.772 21.822H127.43L130.29 13.308H133.92L129.344 24.044H126.748ZM123.998 28.51L127.21 21.58L129.344 24.044L127.452 28.51H123.998Z" fill="white"/>
</svg>
