<svg width="390" height="300" viewBox="0 0 390 300" fill="none" xmlns="http://www.w3.org/2000/svg">
<path d="M97.9987 115.852V154.252H91.3987V148.252H49.3987V156.052C49.3987 174.052 61.9987 180.652 66.1987 183.052C69.5587 184.972 70.3987 191.452 70.3987 194.452H117.199V115.852H97.9987Z" fill="white"/>
<path d="M114.358 113.697H100.42C98.2112 113.697 96.4135 115.495 96.4135 117.704V153.394H93.5561V149.39C93.5561 147.812 92.2727 146.528 90.6941 146.528H50.4979C48.9199 146.528 47.636 147.812 47.636 149.39V153.966C47.636 154.362 47.7168 154.739 47.8625 155.082C47.8624 155.092 47.8596 155.101 47.8596 155.111V158.205C47.8596 167.614 52.9272 176.385 61.0848 181.095C64.0474 182.806 66.2302 185.753 67.0737 189.18L68.4621 194.822C68.778 196.105 69.9205 197 71.2414 197H115.502C117.081 197 118.364 195.717 118.364 194.138V117.704C118.364 115.495 116.567 113.697 114.358 113.697ZM51.0703 149.963H90.1217V153.394H51.0703V149.963ZM114.93 193.566H71.6896L70.4085 188.36C69.3425 184.029 66.57 180.297 62.802 178.122C55.7036 174.022 51.2939 166.391 51.2939 158.205V156.828H96.9859C98.5644 156.828 99.8478 155.545 99.8478 153.966V125.263H114.93V193.566ZM114.93 121.829H99.8478V117.704C99.8478 117.388 100.105 117.132 100.42 117.132H114.358C114.673 117.132 114.93 117.388 114.93 117.704V121.829Z" fill="black"/>
<path d="M59.3885 121.09C59.3885 124.487 56.6094 127.251 53.194 127.251C49.7786 127.251 47 124.487 47 121.09C47 118.168 51.1826 112.186 52.0211 111.017C52.5614 110.262 53.8266 110.263 54.3669 111.017C55.2054 112.186 59.3885 118.168 59.3885 121.09Z" fill="black"/>
<path d="M56.5087 121.091C56.5087 120.003 54.9466 117.075 53.1955 114.396C51.4449 117.075 49.8828 120.003 49.8828 121.091C49.8828 122.908 51.3689 124.386 53.1955 124.386C55.0226 124.386 56.5087 122.908 56.5087 121.091Z" fill="#B1E1FF"/>
<path d="M74.9869 121.09C74.9869 124.487 72.2078 127.251 68.7924 127.251C65.377 127.251 62.5984 124.487 62.5984 121.09C62.5984 118.168 66.781 112.186 67.6195 111.017C68.1598 110.262 69.425 110.263 69.9652 111.017C70.8037 112.186 74.9869 118.168 74.9869 121.09Z" fill="black"/>
<path d="M72.1071 121.091C72.1071 120.003 70.545 117.075 68.7939 114.396C67.0433 117.075 65.4812 120.003 65.4812 121.091C65.4812 122.908 66.9673 124.386 68.7939 124.386C70.621 124.386 72.1071 122.908 72.1071 121.091Z" fill="#B1E1FF"/>
<path d="M90.5891 121.09C90.5891 124.487 87.8101 127.251 84.3947 127.251C80.9793 127.251 78.2007 124.487 78.2007 121.09C78.2007 118.168 82.3833 112.186 83.2218 111.017C83.7621 110.262 85.0273 110.263 85.5675 111.017C86.406 112.186 90.5891 118.168 90.5891 121.09Z" fill="black"/>
<path d="M87.7094 121.091C87.7094 120.003 86.1473 117.075 84.3962 114.396C82.6456 117.075 81.0835 120.003 81.0835 121.091C81.0835 122.908 82.5696 124.386 84.3962 124.386C86.2233 124.386 87.7094 122.908 87.7094 121.091Z" fill="#B1E1FF"/>
<rect x="168.764" y="111.219" width="67.2" height="85.2" fill="white"/>
<path d="M194.565 135.819L202.365 123.219L210.164 135.819C210.365 139.019 209.085 145.419 202.365 145.419C195.645 145.419 194.365 139.019 194.565 135.819Z" fill="#B1E1FF"/>
<path d="M203.598 121.388L203.598 121.387C203.308 120.983 202.831 120.786 202.363 120.786C201.894 120.787 201.418 120.984 201.13 121.388C200.722 121.961 198.73 124.788 196.84 128.044C195.895 129.672 194.974 131.409 194.289 133.027C193.605 134.642 193.15 136.151 193.15 137.318C193.15 142.399 197.283 146.533 202.364 146.533C207.445 146.533 211.579 142.399 211.579 137.318C211.579 136.151 211.124 134.642 210.441 133.027C209.755 131.409 208.834 129.671 207.889 128.043C205.998 124.787 204.006 121.96 203.598 121.388ZM236.04 109.464H168.689C167.341 109.464 166.245 110.561 166.245 111.909V194.675C166.245 196.024 167.341 197.12 168.689 197.12H236.04C237.388 197.12 238.485 196.024 238.485 194.675V111.909C238.485 110.561 237.388 109.464 236.04 109.464ZM235.455 194.09H169.274V112.494H235.455V194.09ZM198.268 131.727C199.462 129.461 200.99 126.987 202.364 124.935C203.738 126.986 205.267 129.46 206.462 131.725C207.073 132.886 207.596 133.99 207.966 134.954C208.337 135.921 208.549 136.734 208.549 137.318C208.549 140.728 205.774 143.503 202.364 143.503C198.954 143.503 196.18 140.729 196.18 137.318C196.18 136.735 196.392 135.921 196.763 134.955C197.133 133.991 197.656 132.887 198.268 131.727ZM181.98 161.404H187.674C188.511 161.404 189.189 160.725 189.189 159.889V154.195C189.189 153.358 188.511 152.68 187.674 152.68H181.98C181.144 152.68 180.465 153.358 180.465 154.195V159.889C180.465 160.725 181.143 161.404 181.98 161.404ZM183.495 155.71H186.159V158.374H183.495V155.71ZM222.749 155.527H192.39C191.553 155.527 190.875 156.205 190.875 157.042C190.875 157.878 191.553 158.557 192.39 158.557H222.749C223.585 158.557 224.264 157.878 224.264 157.042C224.264 156.205 223.585 155.527 222.749 155.527ZM181.98 173.618H187.674C188.511 173.618 189.189 172.939 189.189 172.103V166.409C189.189 165.572 188.511 164.894 187.674 164.894H181.98C181.143 164.894 180.465 165.572 180.465 166.409V172.103C180.465 172.939 181.143 173.618 181.98 173.618ZM183.495 167.924H186.159V170.588H183.495V167.924ZM222.749 170.771C223.585 170.771 224.264 170.092 224.264 169.256C224.264 168.419 223.585 167.741 222.749 167.741H192.39C191.553 167.741 190.875 168.419 190.875 169.256C190.875 170.092 191.553 170.771 192.39 170.771H222.749ZM181.98 185.832H187.674C188.511 185.832 189.189 185.153 189.189 184.317V178.622C189.189 177.786 188.511 177.108 187.674 177.108H181.98C181.143 177.108 180.465 177.786 180.465 178.622V184.317C180.465 185.153 181.143 185.832 181.98 185.832ZM183.495 180.137H186.159V182.802H183.495V180.137ZM222.749 182.984C223.585 182.984 224.264 182.306 224.264 181.47C224.264 180.633 223.585 179.955 222.749 179.955H192.39C191.553 179.955 190.875 180.633 190.875 181.47C190.875 182.306 191.553 182.984 192.39 182.984H222.749Z" fill="black" stroke="black" stroke-width="0.24"/>
<path d="M291.163 112.926C289.723 114.846 288.563 129.726 288.163 136.926L319.363 141.726C326.363 137.726 340.363 129.006 340.363 126.126C340.363 123.246 338.363 116.126 337.363 112.926H291.163Z" fill="white"/>
<path d="M308.563 133.327C300.403 137.647 291.963 137.127 288.763 136.327C288.363 139.727 287.803 150.007 288.763 163.927C289.723 177.847 297.963 190.527 301.963 195.127H326.563C329.923 192.247 333.963 182.727 335.563 178.327C342.763 156.727 341.363 134.127 339.763 125.527C330.163 124.927 318.763 127.927 308.563 133.327Z" fill="#B1E1FF"/>
<path d="M327.163 138.125L304.363 160.925C308.763 164.725 319.603 169.925 327.763 160.325C335.923 150.725 330.763 141.525 327.163 138.125Z" fill="#FFC74D" stroke="black" stroke-width="1.2"/>
<circle cx="313.363" cy="179.526" r="6.6" fill="#E4F5FF"/>
<path d="M289.627 112.594L289.627 112.594C287.414 121.634 286.245 131.87 286.245 142.198C286.245 165.009 291.829 185.858 300.844 196.594C301.123 196.928 301.535 197.12 301.97 197.12H326.659C327.094 197.12 327.507 196.928 327.785 196.594C336.8 185.858 342.385 165.009 342.385 142.198C342.385 131.867 341.215 121.631 339.001 112.594L339.001 112.594C338.839 111.936 338.251 111.474 337.573 111.474H297.826L289.08 89.7985L289.08 89.7985C288.775 89.0441 287.915 88.6875 287.167 88.9843L287.167 88.9843L287.166 88.9846C286.412 89.2889 286.049 90.1459 286.352 90.8981L286.352 90.8982L294.655 111.474H291.055C290.378 111.474 289.789 111.936 289.627 112.594ZM310.996 148.041L310.996 148.041C311.75 147.737 312.113 146.88 311.81 146.128L311.81 146.128L307.267 134.871C309.853 134.019 312.146 133.056 314.403 132.104C320.698 129.448 326.659 126.946 338.542 126.815C339.131 131.819 339.445 136.991 339.445 142.198C339.445 164.006 334.284 183.817 325.964 194.18H302.666C294.345 183.817 289.185 164.006 289.185 142.198C289.185 140.668 289.22 139.143 289.273 137.621C295.622 137.541 300.426 136.789 304.437 135.714L309.082 147.227C309.313 147.8 309.865 148.147 310.446 148.147C310.63 148.147 310.816 148.113 310.996 148.041ZM299.013 114.414H336.413C337.119 117.45 337.703 120.622 338.167 123.881C325.922 124.068 319.476 126.773 313.26 129.395C310.951 130.369 308.688 131.32 306.167 132.144L299.013 114.414ZM292.216 114.414H295.841L303.331 132.975C299.624 133.941 295.226 134.597 289.397 134.68C289.795 127.61 290.748 120.726 292.216 114.414Z" fill="black" stroke="black" stroke-width="0.24"/>
<path d="M328.27 137.147L328.27 137.147C327.994 136.871 327.621 136.716 327.231 136.716C326.84 136.716 326.467 136.871 326.191 137.147L303.124 160.214C302.848 160.49 302.693 160.863 302.693 161.254C302.693 161.644 302.848 162.017 303.124 162.293L303.124 162.293C306.591 165.759 311.144 167.492 315.696 167.492C320.25 167.492 324.804 165.759 328.27 162.293L328.185 162.208L328.27 162.293C335.201 155.36 335.201 144.079 328.27 137.147ZM326.191 160.214C320.756 165.65 312.118 165.977 306.294 161.203L327.18 140.317C331.955 146.141 331.626 154.778 326.191 160.214Z" fill="black" stroke="black" stroke-width="0.24"/>
<path d="M322.101 154.049C321.527 153.475 320.596 153.475 320.022 154.049C319.448 154.623 319.448 155.553 320.022 156.128L321.604 157.71C321.891 157.997 322.268 158.14 322.644 158.14C323.019 158.14 323.396 157.997 323.683 157.71C324.257 157.136 324.257 156.205 323.683 155.631L322.101 154.049Z" fill="black" stroke="black" stroke-width="0.24"/>
<path d="M315.694 155.841C314.882 155.841 314.224 156.498 314.224 157.311V159.55C314.224 160.362 314.882 161.02 315.694 161.02C316.507 161.02 317.164 160.362 317.164 159.55V157.311C317.164 156.498 316.507 155.841 315.694 155.841Z" fill="black" stroke="black" stroke-width="0.24"/>
<path d="M325.527 148.251H323.288C322.476 148.251 321.818 148.909 321.818 149.721C321.818 150.534 322.476 151.191 323.288 151.191H325.527C326.339 151.191 326.997 150.534 326.997 149.721C326.997 148.909 326.339 148.251 325.527 148.251Z" fill="black" stroke="black" stroke-width="0.24"/>
<path d="M312.976 170.987C308.12 170.987 304.17 174.938 304.17 179.796C304.17 184.653 308.12 188.604 312.976 188.604C317.834 188.604 321.784 184.653 321.784 179.796C321.784 174.938 317.834 170.987 312.976 170.987ZM312.976 185.664C309.741 185.664 307.11 183.031 307.11 179.796C307.11 176.561 309.741 173.927 312.976 173.927C316.211 173.927 318.844 176.561 318.844 179.796C318.844 183.03 316.211 185.664 312.976 185.664Z" fill="black" stroke="black" stroke-width="0.24"/>
</svg>
