<svg width="390" height="300" viewBox="0 0 390 300" fill="none" xmlns="http://www.w3.org/2000/svg">
<path fill-rule="evenodd" clip-rule="evenodd" d="M282.056 77.1652C287.003 77.6421 290.628 82.0395 290.151 86.9872C289.378 95.0007 286.407 107.187 279.966 118.82C273.491 130.515 263.115 142.319 247.268 148.082C242.597 149.78 237.433 147.371 235.734 142.699C234.035 138.028 236.445 132.864 241.116 131.166C251.669 127.328 259.126 119.299 264.218 110.102C269.344 100.844 271.673 91.08 272.234 85.2602C272.711 80.3126 277.108 76.6883 282.056 77.1652Z" fill="#F46628" stroke="black" stroke-width="3" stroke-linecap="round" stroke-linejoin="round"/>
<path fill-rule="evenodd" clip-rule="evenodd" d="M94.3287 77.1652C89.381 77.6421 85.7568 82.0395 86.2336 86.9872C87.006 95.0007 89.9775 107.187 96.4184 118.82C102.893 130.515 113.269 142.319 129.116 148.082C133.788 149.78 138.952 147.371 140.65 142.699C142.349 138.028 139.939 132.864 135.268 131.166C124.715 127.328 117.258 119.299 112.166 110.102C107.04 100.844 104.712 91.08 104.151 85.2602C103.674 80.3126 99.2763 76.6883 94.3287 77.1652Z" fill="#F46628" stroke="black" stroke-width="3" stroke-linecap="round" stroke-linejoin="round"/>
<path fill-rule="evenodd" clip-rule="evenodd" d="M189.692 95.123C165.192 95.5095 116.192 105.742 116.192 143.582C116.192 177.027 136.131 186.823 152.647 194.939C159.49 198.301 165.745 201.374 169.752 205.721C177.078 213.668 178.331 220.096 175.549 225.661C173.323 230.113 184.05 231.535 189.692 231.689C195.334 231.535 206.062 230.113 203.836 225.661C201.053 220.096 202.306 213.668 209.632 205.721C213.639 201.374 219.895 198.301 226.737 194.939C243.254 186.823 263.192 177.027 263.192 143.582C263.192 105.742 214.192 95.5095 189.692 95.123Z" fill="#F57A44"/>
<path d="M189.692 95.123L189.716 93.6232C189.7 93.623 189.684 93.623 189.668 93.6232L189.692 95.123ZM152.647 194.939L153.309 193.592L152.647 194.939ZM169.752 205.721L170.855 204.704L169.752 205.721ZM175.549 225.661L176.89 226.332L175.549 225.661ZM189.692 231.689L189.651 233.189C189.678 233.189 189.706 233.189 189.733 233.189L189.692 231.689ZM203.836 225.661L202.494 226.332L203.836 225.661ZM209.632 205.721L210.735 206.738V206.738L209.632 205.721ZM226.737 194.939L226.075 193.592L226.737 194.939ZM117.692 143.582C117.692 125.472 129.362 113.866 144.403 106.66C159.462 99.4452 177.607 96.8139 189.716 96.6229L189.668 93.6232C177.278 93.8187 158.672 96.4969 143.107 103.955C127.522 111.422 114.692 123.853 114.692 143.582H117.692ZM153.309 193.592C145.015 189.517 136.159 185.149 129.329 177.742C122.561 170.403 117.692 159.967 117.692 143.582H114.692C114.692 160.642 119.793 171.827 127.123 179.776C134.391 187.657 143.763 192.245 151.986 196.285L153.309 193.592ZM170.855 204.704C166.618 200.108 160.069 196.914 153.309 193.592L151.986 196.285C158.91 199.687 164.872 202.64 168.649 206.738L170.855 204.704ZM176.89 226.332C178.441 223.229 178.868 219.855 177.89 216.197C176.924 212.584 174.613 208.781 170.855 204.704L168.649 206.738C172.217 210.608 174.195 213.992 174.992 216.972C175.776 219.905 175.438 222.528 174.207 224.99L176.89 226.332ZM189.733 230.19C186.97 230.114 183.028 229.727 180.1 228.85C178.604 228.401 177.586 227.886 177.074 227.385C176.84 227.158 176.776 226.996 176.758 226.903C176.742 226.822 176.731 226.65 176.89 226.332L174.207 224.99C173.81 225.785 173.647 226.631 173.814 227.481C173.978 228.318 174.431 228.999 174.979 229.533C176.028 230.556 177.627 231.24 179.239 231.723C182.53 232.709 186.772 233.11 189.651 233.189L189.733 230.19ZM189.733 233.189C192.612 233.11 196.854 232.709 200.145 231.723C201.757 231.24 203.357 230.556 204.406 229.533C204.953 228.999 205.406 228.318 205.57 227.481C205.737 226.631 205.575 225.785 205.177 224.99L202.494 226.332C202.653 226.65 202.642 226.822 202.627 226.903C202.608 226.996 202.544 227.158 202.311 227.385C201.798 227.886 200.78 228.401 199.284 228.85C196.357 229.727 192.414 230.114 189.651 230.19L189.733 233.189ZM205.177 224.99C203.946 222.528 203.608 219.905 204.392 216.972C205.189 213.992 207.167 210.608 210.735 206.738L208.529 204.704C204.771 208.781 202.46 212.584 201.494 216.197C200.516 219.855 200.943 223.229 202.494 226.332L205.177 224.99ZM210.735 206.738C214.512 202.64 220.474 199.687 227.398 196.285L226.075 193.592C219.315 196.914 212.766 200.108 208.529 204.704L210.735 206.738ZM227.398 196.285C235.621 192.245 244.993 187.657 252.261 179.776C259.591 171.827 264.692 160.642 264.692 143.582H261.692C261.692 159.967 256.824 170.403 250.056 177.742C243.225 185.149 234.369 189.517 226.075 193.592L227.398 196.285ZM264.692 143.582C264.692 123.853 251.862 111.422 236.278 103.955C220.712 96.4969 202.107 93.8187 189.716 93.6232L189.668 96.6229C201.778 96.8139 219.922 99.4452 234.982 106.66C250.022 113.866 261.692 125.472 261.692 143.582H264.692Z" fill="black"/>
<path d="M180.192 145.623C180.192 149.712 176.665 153.123 172.192 153.123C167.719 153.123 164.192 149.712 164.192 145.623C164.192 141.534 167.719 138.123 172.192 138.123C176.665 138.123 180.192 141.534 180.192 145.623Z" fill="white" stroke="black" stroke-width="2"/>
<path d="M198.192 145.623C198.192 149.712 201.719 153.123 206.192 153.123C210.665 153.123 214.192 149.712 214.192 145.623C214.192 141.534 210.665 138.123 206.192 138.123C201.719 138.123 198.192 141.534 198.192 145.623Z" fill="white" stroke="black" stroke-width="2"/>
<circle cx="174.145" cy="146.075" r="3.95162" fill="black"/>
<circle cx="3.95162" cy="3.95162" r="3.95162" transform="matrix(-1 0 0 1 208.386 142.123)" fill="black"/>
<ellipse cx="171.642" cy="129.972" rx="3.04703" ry="1.52352" transform="rotate(-6.3163 171.642 129.972)" fill="black"/>
<ellipse cx="3.04703" cy="1.52352" rx="3.04703" ry="1.52352" transform="matrix(-0.99393 -0.110017 -0.110017 0.99393 209.938 128.793)" fill="black"/>
<ellipse cx="168.305" cy="158.043" rx="5.08066" ry="2.82259" fill="#E05010"/>
<ellipse cx="5.08066" cy="2.82259" rx="5.08066" ry="2.82259" transform="matrix(-1 0 0 1 215.16 155.221)" fill="#E05010"/>
<path d="M181.289 155.221C181.655 157.855 183.748 163.124 189.192 163.124C194.637 163.124 196.729 157.855 197.095 155.221" stroke="black" stroke-width="3" stroke-linecap="round" stroke-linejoin="round"/>
<path d="M328.825 73.9557C328.729 73.8463 328.588 73.7981 328.447 73.8175L314.409 76.034C314.229 76.0639 314.087 76.2042 314.046 76.3893L310.747 91.4691C310.168 89.9897 308.918 88.8243 307.293 88.4687C304.665 87.8936 302.04 89.647 301.442 92.3793C300.844 95.1116 302.498 97.7979 305.126 98.3729C307.754 98.9479 310.383 97.1952 310.98 94.4663L313.422 83.3058L326.502 81.3787L323.675 94.2979C323.097 92.8185 321.847 91.6531 320.227 91.2985C317.595 90.7227 314.97 92.4761 314.372 95.2084C313.774 97.9407 315.428 100.627 318.06 101.203C320.691 101.778 323.313 100.024 323.91 97.2955L328.929 74.3578C328.961 74.2123 328.922 74.0601 328.825 73.9557Z" fill="#F69164"/>
<path d="M68.5226 103.758C68.4406 103.727 68.3503 103.74 68.2783 103.788L61.1829 108.708C61.0923 108.771 61.0519 108.882 61.0792 108.989L63.3076 117.69C62.5947 117.079 61.5985 116.811 60.6131 117.063C59.0198 117.471 58.0511 119.085 58.4549 120.662C58.8586 122.238 60.4835 123.186 62.0767 122.778C63.67 122.37 64.6407 120.755 64.2375 119.181L62.5882 112.741L69.2368 108.228L71.146 115.683C70.4331 115.071 69.4368 114.803 68.4544 115.055C66.8591 115.463 65.8904 117.077 66.2941 118.654C66.6979 120.23 68.3227 121.178 69.918 120.77C71.5132 120.361 72.48 118.748 72.0767 117.173L68.6871 103.938C68.6657 103.854 68.6038 103.785 68.5226 103.758Z" fill="#FE763A"/>
<path d="M107.208 217.412C107.204 217.385 107.196 217.364 107.193 217.337L105.757 206.112L113.673 202.072C113.842 201.987 113.937 201.801 113.914 201.619L113.13 194.989C113.111 194.841 113.02 194.712 112.887 194.644C112.753 194.574 112.596 194.577 112.463 194.643L104.218 198.947C104.049 199.037 103.953 199.217 103.977 199.405L105.931 214.675C104.843 213.485 103.203 212.824 101.469 213.046C98.6556 213.406 96.6562 215.949 97.0103 218.716C97.3644 221.484 99.9392 223.438 102.752 223.078C105.566 222.719 107.561 220.176 107.208 217.412Z" fill="white"/>
<path d="M100.648 205.259C100.646 205.244 100.641 205.231 100.639 205.216L99.8143 198.77L104.36 196.45C104.457 196.401 104.512 196.294 104.499 196.189L104.048 192.382C104.037 192.297 103.985 192.223 103.909 192.184C103.832 192.144 103.742 192.146 103.665 192.184L98.9304 194.655C98.8337 194.707 98.7784 194.81 98.7922 194.918L99.9141 203.687C99.2893 203.004 98.3477 202.624 97.3518 202.752C95.7362 202.958 94.588 204.419 94.7913 206.008C94.9947 207.598 96.4733 208.72 98.0889 208.513C99.7044 208.307 100.851 206.846 100.648 205.259Z" fill="#FFE7DC"/>
<path d="M256.069 211.11C256.074 211.096 256.075 211.085 256.08 211.071L258.148 205.518L262.779 205.564C262.878 205.566 262.967 205.503 263.001 205.413L264.251 202.148C264.278 202.075 264.268 201.993 264.223 201.929C264.178 201.865 264.105 201.828 264.028 201.826L259.18 201.822C259.081 201.823 258.993 201.884 258.958 201.976L256.146 209.531C255.933 208.715 255.338 208.011 254.485 207.693C253.1 207.178 251.56 207.872 251.051 209.241C250.541 210.61 251.253 212.141 252.637 212.657C254.021 213.172 255.56 212.477 256.069 211.11Z" fill="#FA7235"/>
<path d="M332.692 78.123C332.967 78.123 333.192 78.0157 333.192 77.8842V77.3619C333.192 77.2304 332.967 77.123 332.692 77.123C332.417 77.123 332.192 77.2304 332.192 77.3619V77.8842C332.192 78.0157 332.417 78.123 332.692 78.123Z" fill="#F57A44"/>
<path d="M332.692 82.123C332.967 82.123 333.192 81.9084 333.192 81.6454V80.6007C333.192 80.3377 332.967 80.123 332.692 80.123C332.417 80.123 332.192 80.3377 332.192 80.6007V81.6454C332.192 81.9084 332.417 82.123 332.692 82.123Z" fill="#F57A44"/>
<path d="M334.431 80.123H334.953C335.085 80.123 335.192 79.8983 335.192 79.623C335.192 79.3478 335.085 79.123 334.953 79.123H334.431C334.299 79.123 334.192 79.3478 334.192 79.623C334.192 79.8983 334.299 80.123 334.431 80.123Z" fill="#F57A44"/>
<path d="M330.67 80.123H331.714C331.977 80.123 332.192 79.8983 332.192 79.623C332.192 79.3478 331.977 79.123 331.714 79.123H330.67C330.407 79.123 330.192 79.3478 330.192 79.623C330.192 79.8983 330.407 80.123 330.67 80.123Z" fill="#F57A44"/>
<path d="M241.192 93.723C241.633 93.723 241.992 93.5513 241.992 93.3409V92.5052C241.992 92.2948 241.633 92.123 241.192 92.123C240.752 92.123 240.392 92.2948 240.392 92.5052V93.3409C240.392 93.5513 240.752 93.723 241.192 93.723Z" fill="#FAECE6"/>
<path d="M241.192 100.124C241.633 100.124 241.992 99.7804 241.992 99.3596V97.6881C241.992 97.2673 241.633 96.9238 241.192 96.9238C240.752 96.9238 240.392 97.2673 240.392 97.6881V99.3596C240.392 99.7803 240.752 100.124 241.192 100.124Z" fill="#FAECE6"/>
<path d="M243.974 96.9223H244.81C245.02 96.9223 245.192 96.5627 245.192 96.1223C245.192 95.6818 245.02 95.3223 244.81 95.3223H243.974C243.764 95.3223 243.592 95.6818 243.592 96.1223C243.592 96.5627 243.764 96.9223 243.974 96.9223Z" fill="#FAECE6"/>
<path d="M237.956 96.9223H239.628C240.049 96.9223 240.392 96.5627 240.392 96.1223C240.392 95.6818 240.049 95.3223 239.628 95.3223H237.956C237.536 95.3223 237.192 95.6818 237.192 96.1223C237.192 96.5627 237.536 96.9223 237.956 96.9223Z" fill="#FAECE6"/>
<path d="M218.738 203.011C218.942 202.928 219.076 202.78 219.036 202.683L218.878 202.296C218.839 202.199 218.64 202.187 218.436 202.271C218.232 202.354 218.098 202.501 218.138 202.599L218.296 202.986C218.335 203.083 218.534 203.094 218.738 203.011Z" fill="#FAECE6"/>
<path d="M219.948 205.974C220.152 205.891 220.254 205.664 220.174 205.469L219.858 204.696C219.778 204.501 219.547 204.41 219.343 204.493C219.139 204.577 219.038 204.804 219.117 204.998L219.433 205.772C219.513 205.967 219.744 206.058 219.948 205.974Z" fill="#FAECE6"/>
<path d="M220.631 203.967L221.017 203.809C221.115 203.769 221.126 203.571 221.043 203.367C220.96 203.163 220.812 203.029 220.715 203.069L220.328 203.227C220.231 203.266 220.219 203.465 220.302 203.669C220.386 203.873 220.533 204.007 220.631 203.967Z" fill="#FAECE6"/>
<path d="M217.846 205.104L218.619 204.788C218.814 204.708 218.905 204.477 218.822 204.273C218.739 204.069 218.512 203.968 218.317 204.047L217.543 204.363C217.348 204.443 217.257 204.674 217.341 204.878C217.424 205.082 217.651 205.183 217.846 205.104Z" fill="#FAECE6"/>
<path d="M309.711 105.206L309.275 105.643C309.165 105.753 309.165 105.931 309.275 106.041C309.33 106.098 309.401 106.123 309.474 106.123C309.547 106.123 309.618 106.094 309.674 106.041L310.11 105.604C310.22 105.494 310.22 105.316 310.11 105.206C310 105.095 309.823 105.096 309.713 105.206H309.711Z" fill="#F57A44"/>
<path d="M307.229 107.288L306.357 108.163C306.137 108.384 306.137 108.74 306.357 108.96C306.469 109.072 306.61 109.123 306.756 109.123C306.902 109.123 307.043 109.066 307.155 108.96L308.027 108.085C308.247 107.865 308.247 107.509 308.027 107.288C307.808 107.068 307.453 107.068 307.233 107.288H307.229Z" fill="#F57A44"/>
<path d="M309.672 107.288C309.562 107.068 309.384 107.068 309.275 107.288C309.165 107.509 309.165 107.865 309.275 108.085L309.711 108.96C309.767 109.072 309.837 109.123 309.91 109.123C309.983 109.123 310.054 109.066 310.11 108.96C310.22 108.74 310.22 108.384 310.11 108.163L309.674 107.288H309.672Z" fill="#F57A44"/>
<path d="M307.151 105.206C306.931 105.096 306.577 105.096 306.357 105.206C306.137 105.316 306.137 105.494 306.357 105.604L307.229 106.041C307.341 106.098 307.483 106.123 307.628 106.123C307.774 106.123 307.915 106.094 308.027 106.041C308.247 105.931 308.247 105.753 308.027 105.643L307.155 105.206H307.151Z" fill="#F57A44"/>
<path d="M85.7106 197.206L85.2745 197.643C85.1647 197.753 85.1647 197.931 85.2745 198.041C85.3305 198.098 85.4012 198.123 85.4741 198.123C85.5469 198.123 85.6177 198.094 85.6737 198.041L86.1098 197.604C86.2196 197.494 86.2196 197.316 86.1098 197.206C86 197.095 85.8226 197.096 85.7127 197.206H85.7106Z" fill="#F46628"/>
<path d="M83.2291 199.288L82.3569 200.163C82.1372 200.384 82.1372 200.74 82.3569 200.96C82.4688 201.072 82.6103 201.123 82.756 201.123C82.9017 201.123 83.0432 201.066 83.1552 200.96L84.0274 200.085C84.247 199.865 84.247 199.509 84.0274 199.288C83.8078 199.068 83.453 199.068 83.2333 199.288H83.2291Z" fill="#F46628"/>
<path d="M85.6716 199.288C85.5617 199.068 85.3843 199.068 85.2745 199.288C85.1647 199.509 85.1647 199.865 85.2745 200.085L85.7106 200.96C85.7666 201.072 85.8373 201.123 85.9102 201.123C85.9831 201.123 86.0538 201.066 86.1098 200.96C86.2196 200.74 86.2196 200.384 86.1098 200.163L85.6737 199.288H85.6716Z" fill="#F46628"/>
<path d="M83.151 197.206C82.9313 197.096 82.5765 197.096 82.3569 197.206C82.1372 197.316 82.1372 197.494 82.3569 197.604L83.2291 198.041C83.341 198.098 83.4825 198.123 83.6283 198.123C83.774 198.123 83.9155 198.094 84.0274 198.041C84.247 197.931 84.247 197.753 84.0274 197.643L83.1552 197.206H83.151Z" fill="#F46628"/>
<path d="M162.711 223.206L162.275 223.643C162.165 223.753 162.165 223.931 162.275 224.041C162.33 224.098 162.401 224.123 162.474 224.123C162.547 224.123 162.618 224.094 162.674 224.041L163.11 223.604C163.22 223.494 163.22 223.316 163.11 223.206C163 223.095 162.823 223.096 162.713 223.206H162.711Z" fill="#FAD3BB"/>
<path d="M160.229 225.288L159.357 226.163C159.137 226.384 159.137 226.74 159.357 226.96C159.469 227.072 159.61 227.123 159.756 227.123C159.902 227.123 160.043 227.066 160.155 226.96L161.027 226.085C161.247 225.865 161.247 225.509 161.027 225.288C160.808 225.068 160.453 225.068 160.233 225.288H160.229Z" fill="#FAD3BB"/>
<path d="M162.672 225.288C162.562 225.068 162.384 225.068 162.275 225.288C162.165 225.509 162.165 225.865 162.275 226.085L162.711 226.96C162.767 227.072 162.837 227.123 162.91 227.123C162.983 227.123 163.054 227.066 163.11 226.96C163.22 226.74 163.22 226.384 163.11 226.163L162.674 225.288H162.672Z" fill="#FAD3BB"/>
<path d="M160.151 223.206C159.931 223.096 159.577 223.096 159.357 223.206C159.137 223.316 159.137 223.494 159.357 223.604L160.229 224.041C160.341 224.098 160.483 224.123 160.628 224.123C160.774 224.123 160.915 224.094 161.027 224.041C161.247 223.931 161.247 223.753 161.027 223.643L160.155 223.206H160.151Z" fill="#FAD3BB"/>
<path d="M125.349 101.268L124.586 102.033C124.394 102.226 124.394 102.537 124.586 102.73C124.684 102.829 124.808 102.873 124.936 102.873C125.063 102.873 125.187 102.823 125.285 102.73L126.048 101.965C126.24 101.772 126.24 101.46 126.048 101.268C125.856 101.075 125.545 101.075 125.353 101.268H125.349Z" fill="#F69164"/>
<path d="M121.007 104.912L119.48 106.443C119.096 106.829 119.096 107.452 119.48 107.838C119.676 108.034 119.924 108.123 120.179 108.123C120.434 108.123 120.682 108.023 120.877 107.838L122.404 106.306C122.788 105.921 122.788 105.298 122.404 104.912C122.019 104.527 121.399 104.527 121.014 104.912H121.007Z" fill="#F69164"/>
<path d="M125.281 104.912C125.089 104.527 124.778 104.527 124.586 104.912C124.394 105.298 124.394 105.921 124.586 106.306L125.349 107.838C125.447 108.034 125.571 108.123 125.699 108.123C125.826 108.123 125.95 108.023 126.048 107.838C126.24 107.452 126.24 106.829 126.048 106.443L125.285 104.912H125.281Z" fill="#F69164"/>
<path d="M120.87 101.268C120.486 101.075 119.865 101.075 119.48 101.268C119.096 101.46 119.096 101.772 119.48 101.965L121.007 102.73C121.203 102.829 121.45 102.873 121.705 102.873C121.96 102.873 122.208 102.823 122.404 102.73C122.788 102.538 122.788 102.226 122.404 102.033L120.877 101.268H120.87Z" fill="#F69164"/>
<path d="M287.349 152.268L286.586 153.033C286.394 153.226 286.394 153.537 286.586 153.73C286.684 153.829 286.808 153.873 286.936 153.873C287.063 153.873 287.187 153.823 287.285 153.73L288.048 152.965C288.24 152.772 288.24 152.46 288.048 152.268C287.856 152.075 287.545 152.075 287.353 152.268H287.349Z" fill="#F8AF90"/>
<path d="M283.007 155.912L281.48 157.443C281.096 157.829 281.096 158.452 281.48 158.838C281.676 159.034 281.924 159.123 282.179 159.123C282.434 159.123 282.682 159.023 282.877 158.838L284.404 157.306C284.788 156.921 284.788 156.298 284.404 155.912C284.019 155.527 283.399 155.527 283.014 155.912H283.007Z" fill="#F8AF90"/>
<path d="M287.281 155.912C287.089 155.527 286.778 155.527 286.586 155.912C286.394 156.298 286.394 156.921 286.586 157.306L287.349 158.838C287.447 159.034 287.571 159.123 287.699 159.123C287.826 159.123 287.95 159.023 288.048 158.838C288.24 158.452 288.24 157.829 288.048 157.443L287.285 155.912H287.281Z" fill="#F8AF90"/>
<path d="M282.87 152.268C282.486 152.075 281.865 152.075 281.48 152.268C281.096 152.46 281.096 152.772 281.48 152.965L283.007 153.73C283.203 153.829 283.45 153.873 283.705 153.873C283.96 153.873 284.208 153.823 284.404 153.73C284.788 153.538 284.788 153.226 284.404 153.033L282.877 152.268H282.87Z" fill="#F8AF90"/>
<path d="M261.692 144.623C262.579 105.133 210.192 96.623 188.192 96.623C208.328 101.655 250.614 107.836 252.124 139.974C254.181 183.754 214.459 188.382 202.432 203.277C195.692 211.623 199.77 220.88 198.763 224.252C197.757 227.624 194.233 229.779 191.212 229.951C200.192 229.623 203.063 227.225 202.692 226.623C198.692 220.123 201.192 212.623 208.268 204.833C221.69 190.055 260.692 189.123 261.692 144.623Z" fill="#E9652B"/>
</svg>
