<svg width="28" height="28" viewBox="0 0 28 28" fill="none" xmlns="http://www.w3.org/2000/svg">
<mask id="mask0_1098_5027" style="mask-type:alpha" maskUnits="userSpaceOnUse" x="0" y="0" width="28" height="28">
<rect width="28" height="28" fill="#D9D9D9"/>
</mask>
<g mask="url(#mask0_1098_5027)">
<path d="M4.66699 24.5V13.5625L2.56699 15.1667L1.16699 13.3L14.0003 3.5L26.8337 13.3L25.4337 15.1375L23.3337 13.5625V24.5H4.66699ZM9.33366 17.5C9.0031 17.5 8.72602 17.3882 8.50241 17.1646C8.2788 16.941 8.16699 16.6639 8.16699 16.3333C8.16699 16.0028 8.2788 15.7257 8.50241 15.5021C8.72602 15.2785 9.0031 15.1667 9.33366 15.1667C9.66421 15.1667 9.9413 15.2785 10.1649 15.5021C10.3885 15.7257 10.5003 16.0028 10.5003 16.3333C10.5003 16.6639 10.3885 16.941 10.1649 17.1646C9.9413 17.3882 9.66421 17.5 9.33366 17.5ZM14.0003 17.5C13.6698 17.5 13.3927 17.3882 13.1691 17.1646C12.9455 16.941 12.8337 16.6639 12.8337 16.3333C12.8337 16.0028 12.9455 15.7257 13.1691 15.5021C13.3927 15.2785 13.6698 15.1667 14.0003 15.1667C14.3309 15.1667 14.608 15.2785 14.8316 15.5021C15.0552 15.7257 15.167 16.0028 15.167 16.3333C15.167 16.6639 15.0552 16.941 14.8316 17.1646C14.608 17.3882 14.3309 17.5 14.0003 17.5ZM18.667 17.5C18.3364 17.5 18.0594 17.3882 17.8357 17.1646C17.6121 16.941 17.5003 16.6639 17.5003 16.3333C17.5003 16.0028 17.6121 15.7257 17.8357 15.5021C18.0594 15.2785 18.3364 15.1667 18.667 15.1667C18.9975 15.1667 19.2746 15.2785 19.4982 15.5021C19.7219 15.7257 19.8337 16.0028 19.8337 16.3333C19.8337 16.6639 19.7219 16.941 19.4982 17.1646C19.2746 17.3882 18.9975 17.5 18.667 17.5Z" fill="#979797"/>
</g>
</svg>
