<svg width="143" height="118" viewBox="0 0 143 118" fill="none" xmlns="http://www.w3.org/2000/svg">
<path d="M64.7183 4C73.8812 4 81.7232 11.4305 81.7232 20.5933C81.7232 24.8744 79.8879 29.1124 77.2629 32.0859C74.973 34.6744 71.7705 37.555 67.1774 37.336C64.4561 37.2066 61.0811 34.8205 61.0811 31.7175" stroke="white" stroke-width="6.624" stroke-linecap="round" stroke-linejoin="round"/>
<path d="M66.0359 61.7171C75.8559 61.7171 84.2587 53.7556 84.2587 43.9357C84.2587 39.3493 82.8284 34.9023 80.0142 31.7164C77.5617 28.942 74.5384 25.7361 68.7307 25.4043C65.9144 25.2434 61.0845 27.0636 61.0845 31.7164" stroke="white" stroke-width="6.624" stroke-linecap="round" stroke-linejoin="round"/>
<path d="M46.3296 31.6644V13.956C46.3296 8.45697 51.7257 4 58.383 4H64.7183" stroke="white" stroke-width="6.624" stroke-linecap="round" stroke-linejoin="round"/>
<path d="M46.3296 32.0723V51.0484C46.3296 56.939 52.114 61.7179 59.2458 61.7179H66.0325" stroke="white" stroke-width="6.624" stroke-linecap="round" stroke-linejoin="round"/>
<path d="M88.0894 61.6595H96.6699M91.6299 54.4004H96.6699" stroke="#FFA885" stroke-width="5.184" stroke-linecap="round" stroke-linejoin="round"/>
<path d="M6.016 109.719V105.815H11.328C12.3093 105.815 13.0773 105.527 13.632 104.951C14.1867 104.375 14.464 103.671 14.464 102.839C14.464 102.263 14.336 101.751 14.08 101.303C13.824 100.855 13.4613 100.503 12.992 100.247C12.544 99.9907 11.9893 99.8627 11.328 99.8627H6.016V96.0547H10.912C11.744 96.0547 12.416 95.8521 12.928 95.4467C13.44 95.0201 13.696 94.3801 13.696 93.5267C13.696 92.6947 13.44 92.0761 12.928 91.6707C12.416 91.2441 11.744 91.0307 10.912 91.0307H6.016V87.1267H11.872C13.3227 87.1267 14.5493 87.3934 15.552 87.9267C16.576 88.4601 17.3547 89.1747 17.888 90.0707C18.4213 90.9667 18.688 91.9587 18.688 93.0467C18.688 94.4334 18.24 95.6067 17.344 96.5667C16.448 97.5267 15.1253 98.1881 13.376 98.5507L13.504 96.8547C15.4027 97.2174 16.864 97.9534 17.888 99.0627C18.9333 100.172 19.456 101.537 19.456 103.159C19.456 104.396 19.1467 105.516 18.528 106.519C17.9307 107.5 17.056 108.279 15.904 108.855C14.7733 109.431 13.408 109.719 11.808 109.719H6.016ZM2.176 109.719V87.1267H7.136V109.719H2.176ZM22.228 109.719V86.4867H27.124V109.719H22.228ZM37.0677 110.039C35.6384 110.039 34.3584 109.687 33.2278 108.983C32.1184 108.279 31.2331 107.319 30.5718 106.103C29.9318 104.887 29.6118 103.5 29.6118 101.943C29.6118 100.385 29.9318 98.9987 30.5718 97.7827C31.2331 96.5667 32.1184 95.6067 33.2278 94.9027C34.3584 94.1987 35.6384 93.8467 37.0677 93.8467C38.1131 93.8467 39.0518 94.0494 39.8838 94.4547C40.7371 94.8601 41.4304 95.4254 41.9638 96.1507C42.4971 96.8547 42.7958 97.6654 42.8598 98.5827V105.303C42.7958 106.22 42.4971 107.041 41.9638 107.767C41.4518 108.471 40.7691 109.025 39.9158 109.431C39.0624 109.836 38.1131 110.039 37.0677 110.039ZM38.0598 105.623C39.1051 105.623 39.9478 105.281 40.5878 104.599C41.2278 103.895 41.5478 103.009 41.5478 101.943C41.5478 101.217 41.3984 100.577 41.0998 100.023C40.8224 99.4681 40.4171 99.0414 39.8838 98.7427C39.3718 98.4227 38.7744 98.2627 38.0918 98.2627C37.4091 98.2627 36.8011 98.4227 36.2678 98.7427C35.7558 99.0414 35.3398 99.4681 35.0198 100.023C34.7211 100.577 34.5718 101.217 34.5718 101.943C34.5718 102.647 34.7211 103.276 35.0198 103.831C35.3184 104.385 35.7344 104.823 36.2678 105.143C36.8011 105.463 37.3984 105.623 38.0598 105.623ZM41.3558 109.719V105.527L42.0918 101.751L41.3558 97.9747V94.1667H46.1558V109.719H41.3558ZM56.227 110.039C54.755 110.039 53.443 109.687 52.291 108.983C51.1603 108.279 50.2643 107.319 49.603 106.103C48.963 104.887 48.643 103.5 48.643 101.943C48.643 100.385 48.963 98.9987 49.603 97.7827C50.2643 96.5667 51.1603 95.6067 52.291 94.9027C53.443 94.1987 54.755 93.8467 56.227 93.8467C57.2937 93.8467 58.2537 94.0494 59.107 94.4547C59.9817 94.8601 60.6963 95.4254 61.251 96.1507C61.827 96.8547 62.147 97.6654 62.211 98.5827V105.143C62.147 106.06 61.8377 106.892 61.283 107.639C60.7283 108.364 60.0137 108.951 59.139 109.399C58.2643 109.825 57.2937 110.039 56.227 110.039ZM57.091 105.623C57.795 105.623 58.403 105.473 58.915 105.175C59.427 104.855 59.8323 104.417 60.131 103.863C60.4297 103.308 60.579 102.668 60.579 101.943C60.579 101.217 60.4297 100.588 60.131 100.055C59.8537 99.5001 59.4483 99.0627 58.915 98.7427C58.403 98.4227 57.8057 98.2627 57.123 98.2627C56.4403 98.2627 55.8323 98.4227 55.299 98.7427C54.787 99.0627 54.371 99.5001 54.051 100.055C53.7523 100.609 53.603 101.239 53.603 101.943C53.603 102.647 53.7523 103.276 54.051 103.831C54.3497 104.385 54.7657 104.823 55.299 105.143C55.8323 105.463 56.4297 105.623 57.091 105.623ZM65.187 109.719H60.387V105.527L61.123 101.751L60.291 97.9747V86.4867H65.187V109.719ZM75.2583 110.039C73.7863 110.039 72.4743 109.687 71.3223 108.983C70.1916 108.279 69.2956 107.319 68.6343 106.103C67.9943 104.887 67.6743 103.5 67.6743 101.943C67.6743 100.385 67.9943 98.9987 68.6343 97.7827C69.2956 96.5667 70.1916 95.6067 71.3223 94.9027C72.4743 94.1987 73.7863 93.8467 75.2583 93.8467C76.3249 93.8467 77.2849 94.0494 78.1383 94.4547C79.0129 94.8601 79.7276 95.4254 80.2823 96.1507C80.8583 96.8547 81.1783 97.6654 81.2423 98.5827V105.143C81.1783 106.06 80.8689 106.892 80.3143 107.639C79.7596 108.364 79.0449 108.951 78.1703 109.399C77.2956 109.825 76.3249 110.039 75.2583 110.039ZM76.1223 105.623C76.8263 105.623 77.4343 105.473 77.9463 105.175C78.4583 104.855 78.8636 104.417 79.1623 103.863C79.4609 103.308 79.6103 102.668 79.6103 101.943C79.6103 101.217 79.4609 100.588 79.1623 100.055C78.8849 99.5001 78.4796 99.0627 77.9463 98.7427C77.4343 98.4227 76.8369 98.2627 76.1543 98.2627C75.4716 98.2627 74.8636 98.4227 74.3303 98.7427C73.8183 99.0627 73.4023 99.5001 73.0823 100.055C72.7836 100.609 72.6343 101.239 72.6343 101.943C72.6343 102.647 72.7836 103.276 73.0823 103.831C73.3809 104.385 73.7969 104.823 74.3303 105.143C74.8636 105.463 75.4609 105.623 76.1223 105.623ZM84.2183 109.719H79.4183V105.527L80.1543 101.751L79.3223 97.9747V86.4867H84.2183V109.719ZM95.3455 110.071C93.6602 110.071 92.1562 109.729 90.8335 109.047C89.5322 108.343 88.5082 107.372 87.7615 106.135C87.0148 104.897 86.6415 103.5 86.6415 101.943C86.6415 100.385 87.0042 98.9987 87.7295 97.7827C88.4762 96.5454 89.4788 95.5747 90.7375 94.8707C91.9962 94.1667 93.4148 93.8147 94.9935 93.8147C96.5295 93.8147 97.8842 94.1454 99.0575 94.8067C100.231 95.4681 101.148 96.3854 101.81 97.5587C102.492 98.7321 102.833 100.076 102.833 101.591C102.833 101.868 102.812 102.167 102.77 102.487C102.748 102.785 102.695 103.137 102.61 103.543L89.2015 103.575V100.215L100.53 100.183L98.4175 101.591C98.3962 100.695 98.2575 99.9587 98.0015 99.3827C97.7455 98.7854 97.3615 98.3374 96.8495 98.0387C96.3588 97.7187 95.7508 97.5587 95.0255 97.5587C94.2575 97.5587 93.5855 97.7401 93.0095 98.1027C92.4548 98.4441 92.0175 98.9347 91.6975 99.5747C91.3988 100.215 91.2495 100.993 91.2495 101.911C91.2495 102.828 91.4095 103.617 91.7295 104.279C92.0708 104.919 92.5402 105.42 93.1375 105.783C93.7562 106.124 94.4815 106.295 95.3135 106.295C96.0815 106.295 96.7748 106.167 97.3935 105.911C98.0122 105.633 98.5562 105.228 99.0255 104.695L101.714 107.383C100.946 108.279 100.018 108.951 98.9295 109.399C97.8415 109.847 96.6468 110.071 95.3455 110.071ZM105.197 109.719V94.1667H110.093V109.719H105.197ZM110.093 101.175L108.045 99.5747C108.45 97.7614 109.133 96.3534 110.093 95.3507C111.053 94.3481 112.386 93.8467 114.093 93.8467C114.839 93.8467 115.49 93.9641 116.045 94.1987C116.621 94.4121 117.122 94.7534 117.549 95.2227L114.637 98.9027C114.423 98.6681 114.157 98.4867 113.837 98.3587C113.517 98.2307 113.154 98.1667 112.749 98.1667C111.938 98.1667 111.287 98.4227 110.797 98.9347C110.327 99.4254 110.093 100.172 110.093 101.175ZM118.853 109.719V86.4867H123.749V109.719H118.853ZM131.997 109.783L125.597 94.1667H130.877L134.941 106.551H132.989L137.149 94.1667H142.429L135.773 109.783H131.997ZM127.997 116.279L132.669 106.199L135.773 109.783L133.021 116.279H127.997Z" fill="white"/>
</svg>
