<svg width="40" height="40" viewBox="0 0 40 40" fill="none" xmlns="http://www.w3.org/2000/svg">
<path d="M34.7365 18.9505C34.724 18.9256 34.7044 18.906 34.6902 18.8829C34.692 18.8811 34.6938 18.8811 34.6955 18.8793L30.3463 12.1037C30.204 11.8813 29.9585 11.7479 29.6934 11.7479H10.3077C10.0444 11.7479 9.79719 11.8831 9.65488 12.1037L5.3056 18.8793C5.30204 18.8847 5.3056 18.89 5.30382 18.8953C5.29137 18.9149 5.27536 18.9291 5.26646 18.9505C5.13483 19.212 5.16151 19.525 5.33584 19.7616L19.3781 38.6869C19.5239 38.8844 19.7552 39 20.0007 39C20.2461 39 20.4774 38.8844 20.6233 38.6869L34.6655 19.7616C34.8398 19.5268 34.8665 19.212 34.7349 18.9505L34.7365 18.9505ZM32.625 18.5236H27.1176L24.4991 13.2989H29.2702L32.6233 18.5236H32.625ZM14.6214 18.5236L17.2398 13.2989H22.765L25.3835 18.5236H14.6214ZM25.5469 20.0747L20.004 35.8815L14.4611 20.0747H25.5488H25.5469ZM10.7347 13.299H15.5057L12.8873 18.5237H7.37985L10.733 13.299H10.7347ZM12.8159 20.0747L17.5797 33.6561L7.50248 20.0747H12.8159ZM22.4268 33.6561L27.1906 20.0747H32.504L22.4268 33.6561ZM19.2267 7.92687V2.77556C19.2267 2.34686 19.5735 2 20.0022 2C20.4309 2 20.7778 2.34688 20.7778 2.77556V7.92687C20.7778 8.35557 20.4309 8.70243 20.0022 8.70243C19.5735 8.70243 19.2267 8.35556 19.2267 7.92687ZM9.81478 5.46315C9.51238 5.16075 9.51238 4.66978 9.81478 4.36741C10.1172 4.065 10.6082 4.065 10.9105 4.36741L14.5536 8.01048C14.856 8.31288 14.856 8.80385 14.5536 9.10622C14.4024 9.25742 14.2032 9.33392 14.0057 9.33392C13.8065 9.33392 13.609 9.25742 13.4579 9.10622L9.81478 5.46315ZM25.4509 9.10622C25.1485 8.80382 25.1485 8.31285 25.4509 8.01048L29.0939 4.36741C29.3963 4.065 29.8873 4.065 30.1897 4.36741C30.4921 4.66981 30.4921 5.16078 30.1897 5.46315L26.5466 9.10622C26.3954 9.25742 26.1962 9.33392 25.9987 9.33392C25.7995 9.33392 25.602 9.25742 25.4509 9.10622Z" fill="#F46628"/>
</svg>
