<svg width="36" height="36" viewBox="0 0 36 36" fill="none" xmlns="http://www.w3.org/2000/svg">
<path d="M22.0148 11.1987C22.2137 11.1987 22.5528 11.2303 23.032 11.2936C23.5112 11.3569 24.0357 11.5378 24.6054 11.8362C25.1841 12.1255 25.7085 12.6093 26.1787 13.2874C26.1516 13.3146 26.0205 13.414 25.7854 13.5858C25.5503 13.7486 25.288 13.9927 24.9987 14.3183C24.7093 14.6347 24.4562 15.0416 24.2391 15.539C24.0221 16.0272 23.9136 16.6105 23.9136 17.2886C23.9136 18.0663 24.0493 18.7263 24.3205 19.2689C24.6008 19.8114 24.9218 20.25 25.2835 20.5845C25.6543 20.91 25.9798 21.1497 26.2601 21.3034C26.5494 21.4571 26.7032 21.5385 26.7212 21.5475C26.7122 21.5837 26.5947 21.9047 26.3686 22.5105C26.1516 23.1164 25.7899 23.79 25.2835 24.5315C24.8405 25.1735 24.3612 25.7657 23.8458 26.3083C23.3394 26.8508 22.7291 27.1221 22.0148 27.1221C21.5355 27.1221 21.1422 27.0543 20.8347 26.9186C20.5273 26.7739 20.2108 26.6338 19.8853 26.4982C19.5598 26.3535 19.1212 26.2811 18.5697 26.2811C18.0362 26.2811 17.5886 26.3535 17.2269 26.4982C16.8742 26.6428 16.5352 26.7875 16.2096 26.9322C15.8932 27.0769 15.5179 27.1492 15.0839 27.1492C14.4238 27.1492 13.8451 26.887 13.3478 26.3625C12.8504 25.8381 12.3396 25.2096 11.8151 24.4772C11.2093 23.6092 10.6893 22.5512 10.2553 21.3034C9.83033 20.0465 9.61784 18.7806 9.61784 17.5056C9.61784 16.1403 9.87554 14.9964 10.391 14.0741C10.9064 13.1428 11.5664 12.442 12.3712 11.9718C13.185 11.4925 14.0259 11.2529 14.894 11.2529C15.3551 11.2529 15.7892 11.3298 16.1961 11.4835C16.603 11.6282 16.9827 11.7774 17.3354 11.9311C17.6971 12.0848 18.0226 12.1617 18.312 12.1617C18.5923 12.1617 18.9178 12.0803 19.2885 11.9175C19.6593 11.7548 20.0752 11.5965 20.5363 11.4428C20.9975 11.2801 21.4903 11.1987 22.0148 11.1987ZM21.2688 9.47613C20.9161 9.90111 20.4731 10.2583 19.9396 10.5476C19.4061 10.8279 18.8997 10.9681 18.4205 10.9681C18.321 10.9681 18.2261 10.9591 18.1356 10.941C18.1266 10.9138 18.1175 10.8641 18.1085 10.7918C18.0995 10.7194 18.0949 10.6426 18.0949 10.5612C18.0949 10.0187 18.2125 9.49421 18.4476 8.98785C18.6827 8.47244 18.9494 8.04745 19.2478 7.71289C19.6276 7.26078 20.1068 6.88553 20.6855 6.58713C21.2643 6.28874 21.8158 6.1305 22.3403 6.11241C22.3674 6.22996 22.381 6.37012 22.381 6.53288C22.381 7.07541 22.277 7.60438 22.069 8.11979C21.861 8.62616 21.5943 9.07827 21.2688 9.47613Z" fill="black"/>
</svg>
